<svg xmlns="http://www.w3.org/2000/svg" xmlns:xlink="http://www.w3.org/1999/xlink" xmlns:lucid="lucid" width="1860.42" height="1050.92"><g transform="translate(0 -29.081459503919163)" lucid:page-tab-id="R9lBHX2viD6l"><path d="M0 0h1870.4v1323.2H0z" fill="#fff"/><path d="M220 126c0-3.3 2.7-6 6-6h528c3.3 0 6 2.7 6 6v228c0 3.3-2.7 6-6 6H226c-3.3 0-6-2.7-6-6z" stroke="#ef8d22" stroke-width="3" fill="#ffdba9"/><path d="M320 200c0 16.57-13.43 30-30 30s-30-13.43-30-30 13.43-30 30-30 30 13.43 30 30zm-51.22-21.22l42.44 42.44m-42.44 0l42.44-42.44M420 172.9c0-3.32 2.7-6 6-6h60.9c18.28 0 33.1 14.82 33.1 33.1s-14.82 33.1-33.1 33.1H426c-3.3 0-6-2.68-6-6z" stroke="#5e5e5e" stroke-width="3" fill="#fff"/><use xlink:href="#a" transform="matrix(1,0,0,1,425,171.89333333333332) translate(31.982222222222223 35.71166666666667)"/><path d="M60 357.5V206c0-3.3 2.7-6 6-6h174" stroke="#5e5e5e" stroke-width="2" fill="none"/><path d="M61 358.56l-.98-.06-1.02.03v-1.06h2z" fill="#5e5e5e"/><path d="M255.26 200L241 204.64v-9.28z" stroke="#5e5e5e" stroke-width="2" fill="#5e5e5e"/><use xlink:href="#b" transform="matrix(1,0,0,1,68,265.2664033636543) translate(0 14.222222222222223)"/><use xlink:href="#c" transform="matrix(1,0,0,1,68,265.2664033636543) translate(30.44938271604939 14.222222222222223)"/><path d="M323.5 200h72.26" stroke="#c92d39" stroke-width="4" fill="none"/><path d="M323.55 202h-2.2l.15-1.96-.07-2.04h2.12z" fill="#c92d39"/><path d="M412.03 200l-14.27 4.64v-9.28z" stroke="#c92d39" stroke-width="4" fill="#c92d39"/><use xlink:href="#d" transform="matrix(1,0,0,1,337.46666666666664,174.66666666666666) translate(0 14.222222222222223)"/><use xlink:href="#e" transform="matrix(1,0,0,1,337.46666666666664,174.66666666666666) translate(30.44938271604939 14.222222222222223)"/><path d="M290 62v83.76M290 62.05V60" stroke="#c92d39" stroke-width="4" fill="none"/><path d="M290 162.03l-4.64-14.27h9.28z" stroke="#c92d39" stroke-width="4" fill="#c92d39"/><use xlink:href="#f" transform="matrix(1,0,0,1,229.3777777777778,50.08145950391916) translate(0 14.222222222222223)"/><use xlink:href="#e" transform="matrix(1,0,0,1,229.3777777777778,50.08145950391916) translate(35.33827160493827 14.222222222222223)"/><path d="M320 290c0 16.57-13.43 30-30 30s-30-13.43-30-30 13.43-30 30-30 30 13.43 30 30zm-51.22-21.22l42.44 42.44m-42.44 0l42.44-42.44" stroke="#5e5e5e" stroke-width="3" fill="#fff"/><path d="M102.5 499.98l.82-.02 1.77-.1 1.7-.2 1.7-.24 1.68-.32 1.65-.4 1.64-.44 1.63-.54 1.64-.6 1.64-.7 1.65-.77 1.68-.88 1.7-.98 1.75-1.12 1.78-1.24 1.84-1.4 1.9-1.57 2-1.8 2.08-2.03 2.2-2.34 2.33-2.7 2.5-3.17 2.72-3.74 2.98-4.5 3.35-5.55 3.85-7 4.64-9.38 6.16-13.9 35.2-88.64 4.64-9.37 3.85-7 3.35-5.55 2.98-4.5 2.72-3.73 2.5-3.16 2.34-2.7 2.2-2.34 2.08-2.04 1.98-1.8 1.9-1.57 1.85-1.4 1.78-1.23 1.74-1.1 1.7-1 1.67-.87.64-.3" stroke="#5e5e5e" stroke-width="2" fill="none"/><path d="M102.55 500.98l-1.1.02.05-.98-.03-1.02 1.04-.02z" fill="#5e5e5e"/><path d="M255.34 290.7l-12.9 7.7-2.03-9.06z" stroke="#5e5e5e" stroke-width="2" fill="#5e5e5e"/><use xlink:href="#b" transform="matrix(1,0,0,1,96.60870415768856,462.4671883065854) translate(0 14.222222222222223)"/><use xlink:href="#g" transform="matrix(1,0,0,1,96.60870415768856,462.4671883065854) translate(30.44938271604939 14.222222222222223)"/><path d="M322.5 290H464c3.3 0 6-2.7 6-6v-30.9" stroke="#5e5e5e" stroke-width="2" fill="none"/><path d="M322.53 291h-1.1l.07-.96-.03-1.04h1.06z" fill="#5e5e5e"/><path d="M470 237.84l4.64 14.27h-9.28z" stroke="#5e5e5e" stroke-width="2" fill="#5e5e5e"/><use xlink:href="#d" transform="matrix(1,0,0,1,336.81882523279376,264.66666666666663) translate(0 14.222222222222223)"/><use xlink:href="#h" transform="matrix(1,0,0,1,336.81882523279376,264.66666666666663) translate(30.44938271604939 14.222222222222223)"/><path d="M620 176c0-3.3 2.7-6 6-6h64c16.57 0 30 13.43 30 30s-13.43 30-30 30h-64c-3.3 0-6-2.7-6-6z" stroke="#5e5e5e" stroke-width="3" fill="#fff"/><use xlink:href="#i" transform="matrix(1,0,0,1,625,175) translate(29.23222222222222 36.04666666666667)"/><path d="M523.5 200h72.26" stroke="#c92d39" stroke-width="4" fill="none"/><path d="M523.55 202h-2.2l.15-1.97-.06-2.03h2.1z" fill="#c92d39"/><path d="M612.03 200l-14.27 4.64v-9.28z" stroke="#c92d39" stroke-width="4" fill="#c92d39"/><use xlink:href="#j" transform="matrix(1,0,0,1,551.3188605488796,174.6666665686669) translate(0 14.222222222222223)"/><use xlink:href="#c" transform="matrix(1,0,0,1,551.3188605488796,174.6666665686669) translate(30.44938271604939 14.222222222222223)"/><path d="M290 340v77.5" stroke="#5e5e5e" stroke-width="2" fill="none"/><path d="M290 324.74l4.64 14.26h-9.28z" stroke="#5e5e5e" stroke-width="2" fill="#5e5e5e"/><path d="M290 417.47v1.03" stroke="#5e5e5e" stroke-width="2" fill="none"/><use xlink:href="#f" transform="matrix(1,0,0,1,298,407.8323977474334) translate(0 14.222222222222223)"/><use xlink:href="#h" transform="matrix(1,0,0,1,298,407.8323977474334) translate(35.33827160493827 14.222222222222223)"/><path d="M836.88 920c0 22.1-17.9 40-40 40s-40-17.9-40-40 17.9-40 40-40 40 17.9 40 40z" stroke="#ef8d22" stroke-width="3" fill="#ffdba9"/><use xlink:href="#k" transform="matrix(1,0,0,1,761.8801213290187,885) translate(27.006172839506174 39.65277777777778)"/><path d="M660 920c0 22.1-17.9 40-40 40s-40-17.9-40-40 17.9-40 40-40 40 17.9 40 40z" stroke="#5e5e5e" stroke-width="3" fill="#fff"/><use xlink:href="#l" transform="matrix(1,0,0,1,585,885) translate(23.271604938271608 39.65277777777778)"/><path d="M662.5 920h91.88" stroke="#5e5e5e" stroke-width="2" fill="none"/><path d="M662.53 921h-1.1l.07-.98-.03-1.02h1.06zM755.38 919.98l.03 1.02h-1.05v-2h1.1z" fill="#5e5e5e"/><path d="M836.88 1020c0 22.1-17.9 40-40 40s-40-17.9-40-40 17.9-40 40-40 40 17.9 40 40z" stroke="#ef8d22" stroke-width="3" fill="#ffdba9"/><use xlink:href="#k" transform="matrix(1,0,0,1,761.8801213290187,985) translate(27.006172839506174 39.65277777777778)"/><path d="M660 1020c0 22.1-17.9 40-40 40s-40-17.9-40-40 17.9-40 40-40 40 17.9 40 40z" stroke="#5e5e5e" stroke-width="3" fill="#fff"/><use xlink:href="#m" transform="matrix(1,0,0,1,585,985) translate(23.271604938271608 39.65277777777778)"/><path d="M662.5 1020h91.88" stroke="#5e5e5e" stroke-width="2" fill="none"/><path d="M662.53 1021h-1.1l.07-.98-.03-1.02h1.06zM755.38 1019.98l.03 1.02h-1.05v-2h1.1z" fill="#5e5e5e"/><path d="M662.03 1014.18l1.46-.23 2.3-.5 2.18-.58 2.1-.68 2-.78 1.93-.88 1.9-.97 1.87-1.1 1.85-1.2 1.84-1.35 1.85-1.52 1.9-1.72 1.93-1.97 2-2.27 2.14-2.68 2.3-3.25 2.62-4.12 3.18-5.7 5.3-10.8 10.67-22.64 3.03-5.4 2.45-3.87 2.15-3 1.96-2.48 1.83-2.1 1.76-1.77 1.7-1.55 1.65-1.36 1.63-1.2 1.64-1.07 1.64-.96 1.66-.86 1.7-.76 1.73-.67 1.8-.58 1.87-.5 1.96-.42 2.08-.33 2.23-.23 2.4-.13h.18" stroke="#5e5e5e" stroke-width="2" fill="none"/><path d="M662.2 1015.17l-1.03.16-.26-1.98 1-.16zM755.38 919.98l.03 1.02h-1.03l-.03-2h1.1z" fill="#5e5e5e"/><path d="M662.5 920.02l.62.02 1.55.12 1.5.2 1.46.24 1.42.33 1.4.4 1.4.46 1.38.54 1.4.63 1.4.72 1.4.8 1.45.95 1.5 1.07 1.54 1.24 1.62 1.44 1.7 1.68 1.84 1.98 2 2.4 2.22 2.95 2.55 3.77 3.1 5.12 4.32 8.03 18.67 37.78 3.1 5.13 2.54 3.76 2.22 2.94 2 2.4 1.83 1.98 1.7 1.68 1.63 1.44 1.55 1.24 1.5 1.07 1.45.94 1.4.8 1.4.73 1.4.63 1.38.55 1.4.47 1.4.4 1.42.33 1.46.25 1.5.2 1.56.1.62.03" stroke="#5e5e5e" stroke-width="2" fill="none"/><path d="M662.55 919.03l-.05 2-1.06-.03.06-.98-.03-1.02zM755.44 1019l-.06.98.03 1.02h-1.05v-2z" fill="#5e5e5e"/><path d="M1140 920c0 22.1-17.9 40-40 40s-40-17.9-40-40 17.9-40 40-40 40 17.9 40 40z" stroke="#5e5e5e" stroke-width="3" fill="#fff"/><use xlink:href="#n" transform="matrix(1,0,0,1,1065,885) translate(23.271604938271608 39.65277777777778)"/><path d="M1140 1020c0 22.1-17.9 40-40 40s-40-17.9-40-40 17.9-40 40-40 40 17.9 40 40z" stroke="#5e5e5e" stroke-width="3" fill="#fff"/><use xlink:href="#o" transform="matrix(1,0,0,1,1065,985) translate(23.271604938271608 39.65277777777778)"/><path d="M1020 920c0 22.1-17.9 40-40 40s-40-17.9-40-40 17.9-40 40-40 40 17.9 40 40z" stroke="#ef8d22" stroke-width="3" fill="#ffdba9"/><use xlink:href="#k" transform="matrix(1,0,0,1,945,885) translate(27.006172839506174 39.65277777777778)"/><path d="M1020 1020c0 22.1-17.9 40-40 40s-40-17.9-40-40 17.9-40 40-40 40 17.9 40 40z" stroke="#ef8d22" stroke-width="3" fill="#ffdba9"/><use xlink:href="#k" transform="matrix(1,0,0,1,945,985) translate(27.006172839506174 39.65277777777778)"/><path d="M839.38 920h98.12" stroke="#5e5e5e" stroke-width="2" fill="none"/><path d="M839.4 921h-1.08l.06-.98-.03-1.02h1.06zM938.5 919.98l.03 1.02h-1.06v-2h1.1z" fill="#5e5e5e"/><path d="M839.38 1020h98.12" stroke="#5e5e5e" stroke-width="2" fill="none"/><path d="M839.4 1021h-1.08l.06-.98-.03-1.02h1.06zM938.5 1019.98l.03 1.02h-1.06v-2h1.1z" fill="#5e5e5e"/><path d="M839.38 920.02l.84.03 1.75.13 1.7.2 1.63.3 1.6.37 1.58.44 1.55.5 1.54.62 1.55.7 1.55.8 1.58.9 1.6 1.05 1.66 1.2 1.72 1.36 1.8 1.58 1.9 1.87 2.03 2.2 2.23 2.68 2.5 3.32 2.93 4.3 3.72 6.13 6.38 11.88 13.86 26.72 3.7 6.12 2.94 4.3 2.5 3.33 2.23 2.67 2.04 2.2 1.9 1.87 1.8 1.57 1.7 1.37 1.66 1.2 1.6 1.03 1.58.92 1.56.78 1.55.7 1.55.6 1.55.53 1.58.45 1.6.37 1.64.3 1.7.2 1.74.13.84.03" stroke="#5e5e5e" stroke-width="2" fill="none"/><path d="M839.43 919.03l-.05 2-1.06-.03.06-.98-.03-1.02zM938.56 1019l-.06.98.03 1.02h-1.06v-2z" fill="#5e5e5e"/><path d="M839.38 1019.98l.84-.03 1.75-.13 1.7-.2 1.63-.3 1.6-.37 1.58-.44 1.55-.5 1.54-.62 1.55-.7 1.55-.8 1.58-.9 1.6-1.05 1.66-1.2 1.72-1.36 1.8-1.58 1.9-1.87 2.03-2.2 2.23-2.68 2.5-3.32 2.93-4.3 3.72-6.13 6.38-11.88 13.86-26.72 3.7-6.12 2.94-4.3 2.5-3.33 2.23-2.67 2.04-2.2 1.9-1.87 1.8-1.57 1.7-1.37 1.66-1.2 1.6-1.03 1.58-.92 1.56-.78 1.55-.7 1.55-.6 1.55-.53 1.58-.45 1.6-.37 1.64-.3 1.7-.2 1.74-.13.84-.03" stroke="#5e5e5e" stroke-width="2" fill="none"/><path d="M839.43 1020.97l-1.1.03.05-.98-.03-1.02 1.03-.03zM938.5 919.98l.03 1.02h-1.06v-2h1.1z" fill="#5e5e5e"/><path d="M1022.5 920h35" stroke="#5e5e5e" stroke-width="2" fill="none"/><path d="M1022.53 921h-1.1l.07-.98-.03-1.02h1.06zM1058.5 919.98l.03 1.02h-1.06v-2h1.1z" fill="#5e5e5e"/><path d="M1022.5 1020h35" stroke="#5e5e5e" stroke-width="2" fill="none"/><path d="M1022.53 1021h-1.1l.07-.98-.03-1.02h1.06zM1058.5 1019.98l.03 1.02h-1.06v-2h1.1z" fill="#5e5e5e"/><path d="M220 546c0-3.3 2.7-6 6-6h528c3.3 0 6 2.7 6 6v228c0 3.3-2.7 6-6 6H226c-3.3 0-6-2.7-6-6z" stroke="#ef8d22" stroke-width="3" fill="#ffdba9"/><path d="M320 620c0 16.57-13.43 30-30 30s-30-13.43-30-30 13.43-30 30-30 30 13.43 30 30zm-51.22-21.22l42.44 42.44m-42.44 0l42.44-42.44M420 592.9c0-3.32 2.7-6 6-6h60.9c18.28 0 33.1 14.82 33.1 33.1s-14.82 33.1-33.1 33.1H426c-3.3 0-6-2.68-6-6z" stroke="#5e5e5e" stroke-width="3" fill="#fff"/><use xlink:href="#a" transform="matrix(1,0,0,1,425,591.8933333333333) translate(31.982222222222223 35.71166666666667)"/><path d="M102.5 400.02l.74.02 1.7.1 1.64.18 1.63.24 1.6.3 1.6.37 1.58.45 1.57.5 1.57.6 1.6.66 1.6.75 1.6.84 1.66.95 1.68 1.06 1.73 1.2 1.78 1.36 1.85 1.53 1.93 1.74 2.02 1.97 2.13 2.27 2.28 2.63 2.43 3.07 2.64 3.63 2.9 4.35 3.2 5.33 3.68 6.7 4.36 8.8 5.53 12.47 8.8 22.35 25.8 69.4 5.52 12.5 4.36 8.8 3.67 6.68 3.22 5.33 2.9 4.35 2.62 3.63 2.42 3.07 2.27 2.63 2.12 2.27 2.02 1.98 1.93 1.75 1.85 1.53 1.8 1.35 1.72 1.2 1.68 1.08 1.65.96 1.58.83" stroke="#5e5e5e" stroke-width="2" fill="none"/><path d="M102.55 399.02l-.04 2-1.06-.02.06-.98-.03-1.02z" fill="#5e5e5e"/><path d="M255.35 619.26l-14.95 1.23 2.13-9.03z" stroke="#5e5e5e" stroke-width="2" fill="#5e5e5e"/><use xlink:href="#b" transform="matrix(1,0,0,1,109.67468050931168,378.97147476125025) translate(0 14.222222222222223)"/><use xlink:href="#c" transform="matrix(1,0,0,1,109.67468050931168,378.97147476125025) translate(30.44938271604939 14.222222222222223)"/><path d="M322.5 620H400" stroke="#5e5e5e" stroke-width="2" fill="none"/><path d="M322.53 621h-1.1l.07-.96-.03-1.04h1.06z" fill="#5e5e5e"/><path d="M415.26 620L401 624.64v-9.28z" stroke="#5e5e5e" stroke-width="2" fill="#5e5e5e"/><use xlink:href="#d" transform="matrix(1,0,0,1,337.46666666666664,594.6666666666666) translate(0 14.222222222222223)"/><use xlink:href="#p" transform="matrix(1,0,0,1,337.46666666666664,594.6666666666666) translate(30.44938271604939 14.222222222222223)"/><path d="M290 481v89M290 481.03V480" stroke="#5e5e5e" stroke-width="2" fill="none"/><path d="M290 585.26L285.36 571h9.28z" stroke="#5e5e5e" stroke-width="2" fill="#5e5e5e"/><use xlink:href="#f" transform="matrix(1,0,0,1,298,469.33333333333337) translate(0 14.222222222222223)"/><use xlink:href="#p" transform="matrix(1,0,0,1,298,469.33333333333337) translate(35.33827160493827 14.222222222222223)"/><path d="M320 710c0 16.57-13.43 30-30 30s-30-13.43-30-30 13.43-30 30-30 30 13.43 30 30zm-51.22-21.22l42.44 42.44m-42.44 0l42.44-42.44" stroke="#5e5e5e" stroke-width="3" fill="#fff"/><path d="M68.98 541.48V704c0 3.3 2.7 6 6 6H240" stroke="#5e5e5e" stroke-width="2" fill="none"/><path d="M69.98 541.5h-2v-.77l.14-.02 1.86-.48z" fill="#5e5e5e"/><path d="M255.26 710L241 714.64v-9.28z" stroke="#5e5e5e" stroke-width="2" fill="#5e5e5e"/><use xlink:href="#b" transform="matrix(1,0,0,1,76.98030304515093,595.5401235614502) translate(0 14.222222222222223)"/><use xlink:href="#g" transform="matrix(1,0,0,1,76.98030304515093,595.5401235614502) translate(30.44938271604939 14.222222222222223)"/><path d="M323.5 710H464c3.3 0 6-2.7 6-6v-26.66" stroke="#0c7cba" stroke-width="4" fill="none"/><path d="M323.55 712h-2.2l.15-1.96-.07-2.04h2.12z" fill="#0c7cba"/><path d="M470 661.08l4.64 14.26h-9.28z" stroke="#0c7cba" stroke-width="4" fill="#0c7cba"/><use xlink:href="#d" transform="matrix(1,0,0,1,336.81882523279376,684.6666666666667) translate(0 14.222222222222223)"/><use xlink:href="#q" transform="matrix(1,0,0,1,336.81882523279376,684.6666666666667) translate(30.44938271604939 14.222222222222223)"/><path d="M620 596c0-3.3 2.7-6 6-6h64c16.57 0 30 13.43 30 30s-13.43 30-30 30h-64c-3.3 0-6-2.7-6-6z" stroke="#5e5e5e" stroke-width="3" fill="#fff"/><use xlink:href="#i" transform="matrix(1,0,0,1,625,595) translate(29.23222222222222 36.04666666666667)"/><path d="M523.5 620h72.26" stroke="#0c7cba" stroke-width="4" fill="none"/><path d="M523.55 622h-2.2l.15-1.97-.06-2.03h2.1z" fill="#0c7cba"/><path d="M612.03 620l-14.27 4.64v-9.28z" stroke="#0c7cba" stroke-width="4" fill="#0c7cba"/><use xlink:href="#j" transform="matrix(1,0,0,1,551.3188605488796,594.6666665686669) translate(0 14.222222222222223)"/><use xlink:href="#g" transform="matrix(1,0,0,1,551.3188605488796,594.6666665686669) translate(30.44938271604939 14.222222222222223)"/><path d="M290 764.24v72.26" stroke="#0c7cba" stroke-width="4" fill="none"/><path d="M290 747.97l4.64 14.27h-9.28z" stroke="#0c7cba" stroke-width="4" fill="#0c7cba"/><path d="M290 836.45v2.05" stroke="#0c7cba" stroke-width="4" fill="none"/><use xlink:href="#f" transform="matrix(1,0,0,1,229.3777777777778,827.8323977474336) translate(0 14.222222222222223)"/><use xlink:href="#q" transform="matrix(1,0,0,1,229.3777777777778,827.8323977474336) translate(35.33827160493827 14.222222222222223)"/><path d="M920 126c0-3.3 2.7-6 6-6h528c3.3 0 6 2.7 6 6v228c0 3.3-2.7 6-6 6H926c-3.3 0-6-2.7-6-6z" stroke="#ef8d22" stroke-width="3" fill="#ffdba9"/><path d="M1020 200c0 16.57-13.43 30-30 30s-30-13.43-30-30 13.43-30 30-30 30 13.43 30 30zm-51.22-21.22l42.44 42.44m-42.44 0l42.44-42.44M1120 172.9c0-3.32 2.7-6 6-6h60.9c18.28 0 33.1 14.82 33.1 33.1s-14.82 33.1-33.1 33.1H1126c-3.3 0-6-2.68-6-6z" stroke="#5e5e5e" stroke-width="3" fill="#fff"/><use xlink:href="#a" transform="matrix(1,0,0,1,1125,171.89333333333332) translate(31.982222222222223 35.71166666666667)"/><path d="M1023.5 200h72.26" stroke="#c92d39" stroke-width="4" fill="none"/><path d="M1023.55 202h-2.2l.15-1.96-.07-2.04h2.12z" fill="#c92d39"/><path d="M1112.03 200l-14.27 4.64v-9.28z" stroke="#c92d39" stroke-width="4" fill="#c92d39"/><use xlink:href="#r" transform="matrix(1,0,0,1,1037.4666666666667,174.66666666666666) translate(0 14.222222222222223)"/><use xlink:href="#e" transform="matrix(1,0,0,1,1037.4666666666667,174.66666666666666) translate(30.44938271604939 14.222222222222223)"/><path d="M990 61v89M990 61.03V60" stroke="#5e5e5e" stroke-width="2" fill="none"/><path d="M990 165.26L985.36 151h9.28z" stroke="#5e5e5e" stroke-width="2" fill="#5e5e5e"/><use xlink:href="#s" transform="matrix(1,0,0,1,929.3777777777777,52.84273796621852) translate(0 14.222222222222223)"/><use xlink:href="#e" transform="matrix(1,0,0,1,929.3777777777777,52.84273796621852) translate(35.33827160493827 14.222222222222223)"/><path d="M1020 290c0 16.57-13.43 30-30 30s-30-13.43-30-30 13.43-30 30-30 30 13.43 30 30zm-51.22-21.22l42.44 42.44m-42.44 0l42.44-42.44" stroke="#5e5e5e" stroke-width="3" fill="#fff"/><path d="M723.5 619.96l.64-.02 2.57-.16 2.52-.26 2.47-.37 2.42-.46 2.4-.57 2.4-.67 2.4-.78 2.38-.9 2.4-1 2.43-1.14 2.46-1.3 2.5-1.43 2.54-1.6 2.62-1.84 2.7-2.05 2.8-2.3 2.94-2.65 3.06-3 3.23-3.44 3.43-3.98 3.68-4.65 4-5.5 4.38-6.6 4.9-8.08 5.57-10.18 6.62-13.38 8.47-19.1 13.76-35.05 37.36-100.04 8.47-19.1 6.62-13.38 5.58-10.17 4.9-8.07 4.37-6.6 4-5.5 3.67-4.65 3.44-4 3.24-3.43 3.06-3 2.93-2.64 2.8-2.3 2.7-2.06 2.63-1.83 2.55-1.6 2.5-1.45 2.47-1.3 2.43-1.13 2.4-1" stroke="#0c7cba" stroke-width="4" fill="none"/><path d="M723.6 621.96l-2.26.04.16-1.96-.07-2.04 2.08-.04z" fill="#0c7cba"/><path d="M952.14 291.2L939 298.43l-1.74-9.1z" stroke="#0c7cba" stroke-width="4" fill="#0c7cba"/><use xlink:href="#t" transform="matrix(1,0,0,1,802.7710007955194,554.8591661407992) translate(0 14.222222222222223)"/><use xlink:href="#g" transform="matrix(1,0,0,1,802.7710007955194,554.8591661407992) translate(30.44938271604939 14.222222222222223)"/><path d="M1023.5 290H1164c3.3 0 6-2.7 6-6v-26.66" stroke="#0c7cba" stroke-width="4" fill="none"/><path d="M1023.55 292h-2.2l.15-1.96-.07-2.04h2.12z" fill="#0c7cba"/><path d="M1170 241.08l4.64 14.26h-9.28z" stroke="#0c7cba" stroke-width="4" fill="#0c7cba"/><use xlink:href="#r" transform="matrix(1,0,0,1,1036.8188252327936,264.66666666666663) translate(0 14.222222222222223)"/><use xlink:href="#h" transform="matrix(1,0,0,1,1036.8188252327936,264.66666666666663) translate(30.44938271604939 14.222222222222223)"/><path d="M1320 176c0-3.3 2.7-6 6-6h64c16.57 0 30 13.43 30 30s-13.43 30-30 30h-64c-3.3 0-6-2.7-6-6z" stroke="#5e5e5e" stroke-width="3" fill="#fff"/><use xlink:href="#i" transform="matrix(1,0,0,1,1325,175) translate(29.23222222222222 36.04666666666667)"/><path d="M1224 200h69.64" stroke="#19967d" stroke-width="5" fill="none"/><path d="M1224.06 202.5h-2.74l.18-2.47-.06-2.2-.05-.33h2.66z" fill="#19967d"/><path d="M1310.4 200l-14.26 4.64v-9.28z" stroke="#19967d" stroke-width="5" fill="#19967d"/><use xlink:href="#u" transform="matrix(1,0,0,1,1251.3188605488795,174.6666665686669) translate(0 14.222222222222223)"/><use xlink:href="#c" transform="matrix(1,0,0,1,1251.3188605488795,174.6666665686669) translate(30.44938271604939 14.222222222222223)"/><path d="M990 340v77.5" stroke="#5e5e5e" stroke-width="2" fill="none"/><path d="M990 324.74l4.64 14.26h-9.28z" stroke="#5e5e5e" stroke-width="2" fill="#5e5e5e"/><path d="M990 417.47v1.03" stroke="#5e5e5e" stroke-width="2" fill="none"/><use xlink:href="#s" transform="matrix(1,0,0,1,998,407.8323977474334) translate(0 14.222222222222223)"/><use xlink:href="#h" transform="matrix(1,0,0,1,998,407.8323977474334) translate(35.33827160493827 14.222222222222223)"/><path d="M1422.5 200h71.5c3.3 0 6 2.7 6 6v226.45c0 3.32 2.7 6 6 6h54" stroke="#5e5e5e" stroke-width="2" fill="none"/><path d="M1422.53 201h-1.1l.07-.96-.03-1.04h1.06z" fill="#5e5e5e"/><path d="M1575.26 438.45L1561 443.1v-9.28z" stroke="#5e5e5e" stroke-width="2" fill="#5e5e5e"/><use xlink:href="#v" transform="matrix(1,0,0,1,1415.625159150975,395.3775041465059) translate(0 14.222222222222223)"/><use xlink:href="#w" transform="matrix(1,0,0,1,1415.625159150975,395.3775041465059) translate(23.703703703703706 14.222222222222223)"/><use xlink:href="#x" transform="matrix(1,0,0,1,1415.625159150975,395.3775041465059) translate(39.01234567901235 14.222222222222223)"/><use xlink:href="#c" transform="matrix(1,0,0,1,1415.625159150975,395.3775041465059) translate(69.46172839506174 14.222222222222223)"/><path d="M723.5 200h212.26" stroke="#c92d39" stroke-width="4" fill="none"/><path d="M723.55 202h-2.2l.15-1.96-.07-2.04h2.12z" fill="#c92d39"/><path d="M952.03 200l-14.27 4.64v-9.28z" stroke="#c92d39" stroke-width="4" fill="#c92d39"/><use xlink:href="#t" transform="matrix(1,0,0,1,809.0741106246768,174.66666666666666) translate(0 14.222222222222223)"/><use xlink:href="#c" transform="matrix(1,0,0,1,809.0741106246768,174.66666666666666) translate(30.44938271604939 14.222222222222223)"/><path d="M920 546c0-3.3 2.7-6 6-6h528c3.3 0 6 2.7 6 6v228c0 3.3-2.7 6-6 6H926c-3.3 0-6-2.7-6-6z" stroke="#ef8d22" stroke-width="3" fill="#ffdba9"/><path d="M1020 620c0 16.57-13.43 30-30 30s-30-13.43-30-30 13.43-30 30-30 30 13.43 30 30zm-51.22-21.22l42.44 42.44m-42.44 0l42.44-42.44M1120 592.9c0-3.32 2.7-6 6-6h60.9c18.28 0 33.1 14.82 33.1 33.1s-14.82 33.1-33.1 33.1H1126c-3.3 0-6-2.68-6-6z" stroke="#5e5e5e" stroke-width="3" fill="#fff"/><use xlink:href="#a" transform="matrix(1,0,0,1,1125,591.8933333333333) translate(31.982222222222223 35.71166666666667)"/><path d="M1022.5 620h77.5" stroke="#5e5e5e" stroke-width="2" fill="none"/><path d="M1022.53 621h-1.1l.07-.96-.03-1.04h1.06z" fill="#5e5e5e"/><path d="M1115.26 620l-14.26 4.64v-9.28z" stroke="#5e5e5e" stroke-width="2" fill="#5e5e5e"/><use xlink:href="#r" transform="matrix(1,0,0,1,1037.4666666666667,594.6666666666666) translate(0 14.222222222222223)"/><use xlink:href="#p" transform="matrix(1,0,0,1,1037.4666666666667,594.6666666666666) translate(30.44938271604939 14.222222222222223)"/><path d="M990 481v89M990 481.03V480" stroke="#5e5e5e" stroke-width="2" fill="none"/><path d="M990 585.26L985.36 571h9.28z" stroke="#5e5e5e" stroke-width="2" fill="#5e5e5e"/><use xlink:href="#s" transform="matrix(1,0,0,1,998,469.33333333333337) translate(0 14.222222222222223)"/><use xlink:href="#p" transform="matrix(1,0,0,1,998,469.33333333333337) translate(35.33827160493827 14.222222222222223)"/><path d="M1020 710c0 16.57-13.43 30-30 30s-30-13.43-30-30 13.43-30 30-30 30 13.43 30 30zm-51.22-21.22l42.44 42.44m-42.44 0l42.44-42.44" stroke="#5e5e5e" stroke-width="3" fill="#fff"/><path d="M1022.5 710H1164c3.3 0 6-2.7 6-6v-30.9" stroke="#5e5e5e" stroke-width="2" fill="none"/><path d="M1022.53 711h-1.1l.07-.96-.03-1.04h1.06z" fill="#5e5e5e"/><path d="M1170 657.84l4.64 14.27h-9.28z" stroke="#5e5e5e" stroke-width="2" fill="#5e5e5e"/><use xlink:href="#r" transform="matrix(1,0,0,1,1036.8188252327936,684.6666666666667) translate(0 14.222222222222223)"/><use xlink:href="#q" transform="matrix(1,0,0,1,1036.8188252327936,684.6666666666667) translate(30.44938271604939 14.222222222222223)"/><path d="M1320 596c0-3.3 2.7-6 6-6h64c16.57 0 30 13.43 30 30s-13.43 30-30 30h-64c-3.3 0-6-2.7-6-6z" stroke="#5e5e5e" stroke-width="3" fill="#fff"/><use xlink:href="#i" transform="matrix(1,0,0,1,1325,595) translate(29.23222222222222 36.04666666666667)"/><path d="M1222.5 620h77.5" stroke="#5e5e5e" stroke-width="2" fill="none"/><path d="M1222.53 621h-1.1l.07-.97-.03-1.03h1.06z" fill="#5e5e5e"/><path d="M1315.26 620l-14.26 4.64v-9.28z" stroke="#5e5e5e" stroke-width="2" fill="#5e5e5e"/><use xlink:href="#u" transform="matrix(1,0,0,1,1251.3188605488795,594.6666665686669) translate(0 14.222222222222223)"/><use xlink:href="#g" transform="matrix(1,0,0,1,1251.3188605488795,594.6666665686669) translate(30.44938271604939 14.222222222222223)"/><path d="M990 760v77.5" stroke="#5e5e5e" stroke-width="2" fill="none"/><path d="M990 744.74l4.64 14.26h-9.28z" stroke="#5e5e5e" stroke-width="2" fill="#5e5e5e"/><path d="M990 837.47v1.03" stroke="#5e5e5e" stroke-width="2" fill="none"/><use xlink:href="#s" transform="matrix(1,0,0,1,929.3777777777777,824.6190681788886) translate(0 14.222222222222223)"/><use xlink:href="#q" transform="matrix(1,0,0,1,929.3777777777777,824.6190681788886) translate(35.33827160493827 14.222222222222223)"/><path d="M1421 620h72.25c3.3 0 6-2.7 6-6V467.5c0-3.3 2.7-6 6-6H1560M1421.03 620H1420" stroke="#5e5e5e" stroke-width="2" fill="none"/><path d="M1575.26 461.5l-14.26 4.64v-9.28z" stroke="#5e5e5e" stroke-width="2" fill="#5e5e5e"/><g><use xlink:href="#y" transform="matrix(1,0,0,1,1414.8746913580248,494.03881049479645) translate(0 14.222222222222223)"/><use xlink:href="#w" transform="matrix(1,0,0,1,1414.8746913580248,494.03881049479645) translate(23.703703703703706 14.222222222222223)"/><use xlink:href="#x" transform="matrix(1,0,0,1,1414.8746913580248,494.03881049479645) translate(39.01234567901235 14.222222222222223)"/><use xlink:href="#g" transform="matrix(1,0,0,1,1414.8746913580248,494.03881049479645) translate(69.46172839506174 14.222222222222223)"/></g><path d="M720.93 620.37l16.25 6.53 18.42 8.32 23.04 11.62L849 684.56l12.7 5.75 10.85 4.37 9.9 3.5 9.46 2.9 9.3 2.44 9.3 2.03 9.48 1.65 9.85 1.3 10.18.9M720.95 620.38L720 620" stroke="#5e5e5e" stroke-width="2" fill="none"/><path d="M955.26 709.9l-14.4 4.14.3-9.26z" stroke="#5e5e5e" stroke-width="2" fill="#5e5e5e"/><g><use xlink:href="#t" transform="matrix(1,0,0,1,786.5257330280839,629.9246043916473) translate(0 14.222222222222223)"/><use xlink:href="#g" transform="matrix(1,0,0,1,786.5257330280839,629.9246043916473) translate(30.44938271604939 14.222222222222223)"/></g><path d="M722.5 200.02l1.08.02 2.04.13 2 .2 1.98.3 1.97.38 1.95.46 1.95.55 1.96.64 1.97.72 2 .84 2 .95 2.06 1.08 2.1 1.22 2.16 1.37 2.22 1.54 2.3 1.76 2.4 1.98 2.5 2.25 2.62 2.57 2.78 2.96 2.96 3.43 3.17 4 3.43 4.73 3.74 5.62 4.12 6.82 4.6 8.4 5.27 10.63 6.17 13.9 7.58 19.22 10.3 29.7 58.54 192.9 7.58 19.23 6.17 13.9 5.26 10.63 4.6 8.4 4.13 6.82 3.74 5.63 3.43 4.73 3.17 4 2.96 3.44 2.78 2.96 2.63 2.58 2.5 2.26 2.4 1.98 2.3 1.75 2.2 1.53 2.17 1.37 2.1 1.22 2.05 1.07 2 .94 1.84.77" stroke="#5e5e5e" stroke-width="2" fill="none"/><path d="M722.55 199.02l-.04 2-1.08-.02.08-.96-.03-1.04z" fill="#5e5e5e"/><path d="M955.32 619.4l-14.88 1.83 1.75-9.1z" stroke="#5e5e5e" stroke-width="2" fill="#5e5e5e"/><g><use xlink:href="#t" transform="matrix(1,0,0,1,796.050695758561,245.30443572451213) translate(0 14.222222222222223)"/><use xlink:href="#c" transform="matrix(1,0,0,1,796.050695758561,245.30443572451213) translate(30.44938271604939 14.222222222222223)"/></g><path d="M100 400c0 22.1-17.9 40-40 40s-40-17.9-40-40 17.9-40 40-40 40 17.9 40 40z" stroke="#5e5e5e" stroke-width="3" fill="#fff"/><g><use xlink:href="#l" transform="matrix(1,0,0,1,25,365) translate(23.271604938271608 39.65277777777778)"/></g><path d="M100 500c0 22.1-17.9 40-40 40s-40-17.9-40-40 17.9-40 40-40 40 17.9 40 40z" stroke="#5e5e5e" stroke-width="3" fill="#fff"/><g><use xlink:href="#m" transform="matrix(1,0,0,1,25,465) translate(23.271604938271608 39.65277777777778)"/></g><path d="M1580 386c0-3.3 2.7-6 6-6h168c3.3 0 6 2.7 6 6v148c0 3.3-2.7 6-6 6h-168c-3.3 0-6-2.7-6-6z" stroke="#0c7cba" stroke-width="3" fill="#b2d6ef"/><path d="M1620 436c0-3.3 2.7-6 6-6h64c16.57 0 30 13.43 30 30s-13.43 30-30 30h-64c-3.3 0-6-2.7-6-6z" stroke="#5e5e5e" stroke-width="3" fill="#fff"/><g><use xlink:href="#z" transform="matrix(1,0,0,1,1625,435) translate(32.733333333333334 36.04666666666667)"/></g><path d="M1722.5 460h88.42" stroke="#5e5e5e" stroke-width="2" fill="none"/><path d="M1722.53 461h-1.1l.07-.96-.03-1.04h1.06z" fill="#5e5e5e"/><path d="M1826.18 460l-14.26 4.64v-9.28z" stroke="#5e5e5e" stroke-width="2" fill="#5e5e5e"/><g><use xlink:href="#A" transform="matrix(1,0,0,1,1787.490488162919,434.66666666666663) translate(0 14.222222222222223)"/></g><path d="M1661 410h-2v-79.33h2z" fill="#5e5e5e"/><path fill="#5e5e5e"/><path d="M1660 425.26l-4.64-14.26h9.28z" fill="#5e5e5e"/><path d="M1660 428.5l-6-18.5h12zm-3.26-16.5l3.26 10.03 3.26-10.03z" fill="#5e5e5e"/><g><use xlink:href="#B" transform="matrix(1,0,0,1,1654.0740740740741,309.3333333333333) translate(0 14.222222222222223)"/></g><defs><path fill="#202122" d="M19 0v-28l95-102-92-89v-29h176v28H60l80 78v22L54-27h154V0H19" id="C"/><use transform="matrix(0.09925925925925926,0,0,0.09925925925925926,0,0)" xlink:href="#C" id="a"/><path fill="#333" d="M182 0l-62-99L58 0H3l86-130-79-118h55l55 88 55-88h55l-75 118L237 0h-55" id="D"/><path fill="#333" d="M20 75v-336h95v34H67V41h48v34H20" id="E"/><path fill="#333" d="M101-251c68 0 84 54 84 127C185-50 166 4 99 4S15-52 14-124c-1-75 17-127 87-127zm-1 216c37-5 36-46 36-89s4-89-36-89c-39 0-36 45-36 89 0 43-3 85 36 89" id="F"/><path fill="#333" d="M4 75V41h49v-268H4v-34h96V75H4" id="G"/><g id="b"><use transform="matrix(0.04938271604938272,0,0,0.04938271604938272,0,0)" xlink:href="#D"/><use transform="matrix(0.034567901234567905,0,0,0.034567901234567905,11.851851851851853,-4.977777777777778)" xlink:href="#E"/><use transform="matrix(0.034567901234567905,0,0,0.034567901234567905,15.965432098765433,-4.977777777777778)" xlink:href="#F"/><use transform="matrix(0.034567901234567905,0,0,0.034567901234567905,22.879012345679016,-4.977777777777778)" xlink:href="#G"/></g><use transform="matrix(0.034567901234567905,0,0,0.034567901234567905,0,2.488888888888889)" xlink:href="#F" id="c"/><path fill="#333" d="M24-248c93 1 206-16 204 79-1 75-69 88-152 82V0H24v-248zm52 121c47 0 100 7 100-41 0-47-54-39-100-39v80" id="H"/><g id="d"><use transform="matrix(0.04938271604938272,0,0,0.04938271604938272,0,0)" xlink:href="#H"/><use transform="matrix(0.034567901234567905,0,0,0.034567901234567905,11.851851851851853,-4.977777777777778)" xlink:href="#E"/><use transform="matrix(0.034567901234567905,0,0,0.034567901234567905,15.965432098765433,-4.977777777777778)" xlink:href="#F"/><use transform="matrix(0.034567901234567905,0,0,0.034567901234567905,22.879012345679016,-4.977777777777778)" xlink:href="#G"/></g><path fill="#333" d="M76-54c-1 42 2 86-19 110H24C36 42 46 24 48 0H25v-54h51" id="I"/><g id="e"><use transform="matrix(0.034567901234567905,0,0,0.034567901234567905,0,2.488888888888889)" xlink:href="#F"/><use transform="matrix(0.034567901234567905,0,0,0.034567901234567905,6.913580246913581,2.488888888888889)" xlink:href="#I"/><use transform="matrix(0.034567901234567905,0,0,0.034567901234567905,10.37037037037037,2.488888888888889)" xlink:href="#F"/></g><path fill="#333" d="M275 0h-61l-44-196L126 0H64L0-248h53L97-49l45-199h58l43 199 44-199h52" id="J"/><g id="f"><use transform="matrix(0.04938271604938272,0,0,0.04938271604938272,0,0)" xlink:href="#J"/><use transform="matrix(0.034567901234567905,0,0,0.034567901234567905,16.74074074074074,-4.977777777777778)" xlink:href="#E"/><use transform="matrix(0.034567901234567905,0,0,0.034567901234567905,20.854320987654322,-4.977777777777778)" xlink:href="#F"/><use transform="matrix(0.034567901234567905,0,0,0.034567901234567905,27.7679012345679,-4.977777777777778)" xlink:href="#G"/></g><path fill="#333" d="M23 0v-37h61v-169l-59 37v-38l62-41h46v211h57V0H23" id="K"/><use transform="matrix(0.034567901234567905,0,0,0.034567901234567905,0,2.488888888888889)" xlink:href="#K" id="g"/><g id="h"><use transform="matrix(0.034567901234567905,0,0,0.034567901234567905,0,2.488888888888889)" xlink:href="#F"/><use transform="matrix(0.034567901234567905,0,0,0.034567901234567905,6.913580246913581,2.488888888888889)" xlink:href="#I"/><use transform="matrix(0.034567901234567905,0,0,0.034567901234567905,10.37037037037037,2.488888888888889)" xlink:href="#K"/></g><path fill="#373637" d="M450-467c33 64 75 128 72 228 0 158-83 250-239 250C119 11 41-92 41-256c0-181 106-272 283-272h278v64zM281-56c203 8 164-306 89-408-156-8-233 61-233 208-3 119 39 194 144 200" id="L"/><use transform="matrix(0.051111111111111114,0,0,0.051111111111111114,0,0)" xlink:href="#L" id="i"/><path fill="#333" d="M169-182c-1-43-94-46-97-3 18 66 151 10 154 114 3 95-165 93-204 36-6-8-10-19-12-30l50-8c3 46 112 56 116 5-17-69-150-10-154-114-4-87 153-88 188-35 5 8 8 18 10 28" id="M"/><g id="j"><use transform="matrix(0.04938271604938272,0,0,0.04938271604938272,0,0)" xlink:href="#M"/><use transform="matrix(0.034567901234567905,0,0,0.034567901234567905,11.851851851851853,-4.977777777777778)" xlink:href="#E"/><use transform="matrix(0.034567901234567905,0,0,0.034567901234567905,15.965432098765433,-4.977777777777778)" xlink:href="#F"/><use transform="matrix(0.034567901234567905,0,0,0.034567901234567905,22.879012345679016,-4.977777777777778)" xlink:href="#G"/></g><path fill="#333" d="M197 0v-115H63V0H30v-248h33v105h134v-105h34V0h-34" id="N"/><use transform="matrix(0.06172839506172839,0,0,0.06172839506172839,0,0)" xlink:href="#N" id="k"/><g id="l"><use transform="matrix(0.06172839506172839,0,0,0.06172839506172839,0,0)" xlink:href="#D"/><use transform="matrix(0.043209876543209874,0,0,0.043209876543209874,14.814814814814813,3.1111111111111107)" xlink:href="#F"/></g><g id="m"><use transform="matrix(0.06172839506172839,0,0,0.06172839506172839,0,0)" xlink:href="#D"/><use transform="matrix(0.043209876543209874,0,0,0.043209876543209874,14.814814814814813,3.1111111111111107)" xlink:href="#K"/></g><path fill="#333" d="M185-274v5h-28l-36-26c-19 11-30 31-65 26v-5l45-49h40zm-39 172V0H94v-102L6-248h54l60 105 60-105h54" id="O"/><g id="n"><use transform="matrix(0.06172839506172839,0,0,0.06172839506172839,0,0)" xlink:href="#O"/><use transform="matrix(0.043209876543209874,0,0,0.043209876543209874,14.814814814814813,3.1111111111111107)" xlink:href="#F"/></g><g id="o"><use transform="matrix(0.06172839506172839,0,0,0.06172839506172839,0,0)" xlink:href="#O"/><use transform="matrix(0.043209876543209874,0,0,0.043209876543209874,14.814814814814813,3.1111111111111107)" xlink:href="#K"/></g><g id="p"><use transform="matrix(0.034567901234567905,0,0,0.034567901234567905,0,2.488888888888889)" xlink:href="#K"/><use transform="matrix(0.034567901234567905,0,0,0.034567901234567905,6.913580246913581,2.488888888888889)" xlink:href="#I"/><use transform="matrix(0.034567901234567905,0,0,0.034567901234567905,10.37037037037037,2.488888888888889)" xlink:href="#F"/></g><g id="q"><use transform="matrix(0.034567901234567905,0,0,0.034567901234567905,0,2.488888888888889)" xlink:href="#K"/><use transform="matrix(0.034567901234567905,0,0,0.034567901234567905,6.913580246913581,2.488888888888889)" xlink:href="#I"/><use transform="matrix(0.034567901234567905,0,0,0.034567901234567905,10.37037037037037,2.488888888888889)" xlink:href="#K"/></g><g id="r"><use transform="matrix(0.04938271604938272,0,0,0.04938271604938272,0,0)" xlink:href="#H"/><use transform="matrix(0.034567901234567905,0,0,0.034567901234567905,11.851851851851853,-4.977777777777778)" xlink:href="#E"/><use transform="matrix(0.034567901234567905,0,0,0.034567901234567905,15.965432098765433,-4.977777777777778)" xlink:href="#K"/><use transform="matrix(0.034567901234567905,0,0,0.034567901234567905,22.879012345679016,-4.977777777777778)" xlink:href="#G"/></g><g id="s"><use transform="matrix(0.04938271604938272,0,0,0.04938271604938272,0,0)" xlink:href="#J"/><use transform="matrix(0.034567901234567905,0,0,0.034567901234567905,16.74074074074074,-4.977777777777778)" xlink:href="#E"/><use transform="matrix(0.034567901234567905,0,0,0.034567901234567905,20.854320987654322,-4.977777777777778)" xlink:href="#K"/><use transform="matrix(0.034567901234567905,0,0,0.034567901234567905,27.7679012345679,-4.977777777777778)" xlink:href="#G"/></g><g id="t"><use transform="matrix(0.04938271604938272,0,0,0.04938271604938272,0,0)" xlink:href="#D"/><use transform="matrix(0.034567901234567905,0,0,0.034567901234567905,11.851851851851853,-4.977777777777778)" xlink:href="#E"/><use transform="matrix(0.034567901234567905,0,0,0.034567901234567905,15.965432098765433,-4.977777777777778)" xlink:href="#K"/><use transform="matrix(0.034567901234567905,0,0,0.034567901234567905,22.879012345679016,-4.977777777777778)" xlink:href="#G"/></g><g id="u"><use transform="matrix(0.04938271604938272,0,0,0.04938271604938272,0,0)" xlink:href="#M"/><use transform="matrix(0.034567901234567905,0,0,0.034567901234567905,11.851851851851853,-4.977777777777778)" xlink:href="#E"/><use transform="matrix(0.034567901234567905,0,0,0.034567901234567905,15.965432098765433,-4.977777777777778)" xlink:href="#K"/><use transform="matrix(0.034567901234567905,0,0,0.034567901234567905,22.879012345679016,-4.977777777777778)" xlink:href="#G"/></g><path fill="#333" d="M146-102V0H94v-102L6-248h54l60 105 60-105h54" id="P"/><g id="v"><use transform="matrix(0.04938271604938272,0,0,0.04938271604938272,0,0)" xlink:href="#P"/><use transform="matrix(0.034567901234567905,0,0,0.034567901234567905,11.851851851851853,2.488888888888889)" xlink:href="#F"/></g><path fill="#333" d="M15-148v-39h180v39H15zm0 97v-39h180v39H15" id="Q"/><use transform="matrix(0.04938271604938272,0,0,0.04938271604938272,0,0)" xlink:href="#Q" id="w"/><path fill="#333" d="M182-182c0 78-84 86-111 141h115V0H12c-6-101 99-100 120-180 1-22-12-31-33-32-23 0-32 14-35 34l-49-3c5-45 32-70 84-70 51 0 83 22 83 69" id="R"/><g id="x"><use transform="matrix(0.04938271604938272,0,0,0.04938271604938272,0,0)" xlink:href="#D"/><use transform="matrix(0.034567901234567905,0,0,0.034567901234567905,11.851851851851853,-4.977777777777778)" xlink:href="#E"/><use transform="matrix(0.034567901234567905,0,0,0.034567901234567905,15.965432098765433,-4.977777777777778)" xlink:href="#R"/><use transform="matrix(0.034567901234567905,0,0,0.034567901234567905,22.879012345679016,-4.977777777777778)" xlink:href="#G"/></g><g id="y"><use transform="matrix(0.04938271604938272,0,0,0.04938271604938272,0,0)" xlink:href="#P"/><use transform="matrix(0.034567901234567905,0,0,0.034567901234567905,11.851851851851853,2.488888888888889)" xlink:href="#K"/></g><path fill="#373637" d="M393-193C390-70 338 12 212 12 130 12 70-23 31-93l60-42c25 44 54 74 113 74 81 0 105-50 105-140v-455h84v463" id="S"/><use transform="matrix(0.051111111111111114,0,0,0.051111111111111114,0,0)" xlink:href="#S" id="z"/><path fill="#333" d="M24 0v-248h52v208h133V0H24" id="T"/><use transform="matrix(0.04938271604938272,0,0,0.04938271604938272,0,0)" xlink:href="#T" id="A"/><use transform="matrix(0.04938271604938272,0,0,0.04938271604938272,0,0)" xlink:href="#O" id="B"/></defs></g></svg>