<svg xmlns="http://www.w3.org/2000/svg" xmlns:xlink="http://www.w3.org/1999/xlink" xmlns:lucid="lucid" width="970" height="520"><g transform="translate(-680 -740)" lucid:page-tab-id="jGbDyN79RL8Z"><path d="M0 0h1870.4v1323.2H0z" fill="#fff"/><path d="M956.88 900c0 22.1-17.9 40-40 40s-40-17.9-40-40 17.9-40 40-40 40 17.9 40 40z" stroke="#ef8d22" stroke-width="3" fill="#ffdba9"/><use xlink:href="#a" transform="matrix(1,0,0,1,881.8801213290187,865) translate(27.006172839506174 39.65277777777778)"/><path d="M780 900c0 22.1-17.9 40-40 40s-40-17.9-40-40 17.9-40 40-40 40 17.9 40 40z" stroke="#5e5e5e" stroke-width="3" fill="#fff"/><use xlink:href="#b" transform="matrix(1,0,0,1,705,865) translate(23.271604938271608 39.65277777777778)"/><path d="M783 900h90.88" stroke="#c92d39" stroke-width="3" fill="none"/><path d="M783.04 901.5h-1.63l.1-1.48-.05-1.52h1.6zM875.38 899.98l.05 1.52h-1.6v-3h1.64z" fill="#c92d39"/><path d="M956.88 1000c0 22.1-17.9 40-40 40s-40-17.9-40-40 17.9-40 40-40 40 17.9 40 40z" stroke="#ef8d22" stroke-width="3" fill="#ffdba9"/><use xlink:href="#a" transform="matrix(1,0,0,1,881.8801213290187,965) translate(27.006172839506174 39.65277777777778)"/><path d="M780 1000c0 22.1-17.9 40-40 40s-40-17.9-40-40 17.9-40 40-40 40 17.9 40 40z" stroke="#5e5e5e" stroke-width="3" fill="#fff"/><use xlink:href="#c" transform="matrix(1,0,0,1,705,965) translate(23.271604938271608 39.65277777777778)"/><path d="M782 1000h92.88" stroke="#5e5e5e" fill="none"/><path d="M782 1000.5h-.53l.03-.48-.02-.52h.53zM875.38 999.98l.02.52h-.53v-1h.54z" fill="#5e5e5e"/><path d="M782 1000l1.12-.04 1.55-.12 1.5-.2 1.46-.24 1.42-.33 1.4-.4 1.4-.46 1.38-.54 1.4-.63 1.4-.72 1.4-.8 1.45-.95 1.5-1.07 1.54-1.24 1.62-1.44 1.7-1.68 1.84-1.98 2-2.4 2.22-2.95 2.55-3.77 3.1-5.12 4.32-8.03 18.67-37.78 3.1-5.13 2.54-3.76 2.22-2.94 2-2.4 1.83-1.98 1.7-1.68 1.63-1.44 1.55-1.24 1.5-1.07 1.45-.94 1.4-.8 1.4-.73 1.4-.63 1.38-.55 1.4-.47 1.4-.4 1.42-.33 1.46-.25 1.5-.2 1.56-.1 1.12-.04" stroke="#5e5e5e" fill="none"/><path d="M782.03 1000.5h-.56l.03-.48-.02-.52h.52zM875.38 899.98l.02.52h-.53v-1h.54z" fill="#5e5e5e"/><path d="M782 900l1.12.04 1.55.12 1.5.2 1.46.24 1.42.33 1.4.4 1.4.46 1.38.54 1.4.63 1.4.72 1.4.8 1.45.95 1.5 1.07 1.54 1.24 1.62 1.44 1.7 1.68 1.84 1.98 2 2.4 2.22 2.95 2.55 3.77 3.1 5.12 4.32 8.03 18.67 37.78 3.1 5.13 2.54 3.76 2.22 2.94 2 2.4 1.83 1.98 1.7 1.68 1.63 1.44 1.55 1.24 1.5 1.07 1.45.94 1.4.8 1.4.73 1.4.63 1.38.55 1.4.47 1.4.4 1.42.33 1.46.25 1.5.2 1.56.1 1.12.04" stroke="#5e5e5e" fill="none"/><path d="M782.03 899.5l-.03 1h-.53l.03-.48-.02-.52zM875.4 999.5l-.02.48.02.52h-.53v-1z" fill="#5e5e5e"/><path d="M1520 1000c0 22.1-17.9 40-40 40s-40-17.9-40-40 17.9-40 40-40 40 17.9 40 40z" stroke="#5e5e5e" stroke-width="3" fill="#fff"/><use xlink:href="#d" transform="matrix(1,0,0,1,1445,965) translate(27.592592592592595 39.65277777777778)"/><path d="M1140 900c0 22.1-17.9 40-40 40s-40-17.9-40-40 17.9-40 40-40 40 17.9 40 40z" stroke="#ef8d22" stroke-width="3" fill="#ffdba9"/><use xlink:href="#a" transform="matrix(1,0,0,1,1065,865) translate(27.006172839506174 39.65277777777778)"/><path d="M1140 1000c0 22.1-17.9 40-40 40s-40-17.9-40-40 17.9-40 40-40 40 17.9 40 40z" stroke="#ef8d22" stroke-width="3" fill="#ffdba9"/><use xlink:href="#a" transform="matrix(1,0,0,1,1065,965) translate(27.006172839506174 39.65277777777778)"/><path d="M958.88 900H1058" stroke="#5e5e5e" fill="none"/><path d="M958.9 900.5h-.55l.03-.48-.02-.52h.53zM1058.5 899.98l.02.52h-.53v-1h.53z" fill="#5e5e5e"/><path d="M958.88 1000H1058" stroke="#5e5e5e" fill="none"/><path d="M958.9 1000.5h-.55l.03-.48-.02-.52h.53zM1058.5 999.98l.02.52h-.53v-1h.53z" fill="#5e5e5e"/><path d="M958.88 900l1.34.05 1.75.13 1.7.2 1.63.3 1.6.37 1.58.44 1.55.5 1.54.62 1.55.7 1.55.8 1.58.9 1.6 1.05 1.66 1.2 1.72 1.36 1.8 1.58 1.9 1.87 2.03 2.2 2.23 2.68 2.5 3.32 2.93 4.3 3.72 6.13 6.38 11.88 13.86 26.72 3.7 6.12 2.94 4.3 2.5 3.33 2.23 2.67 2.04 2.2 1.9 1.87 1.8 1.57 1.7 1.37 1.66 1.2 1.6 1.03 1.58.92 1.56.78 1.55.7 1.55.6 1.55.53 1.58.45 1.6.37 1.64.3 1.7.2 1.74.13 1.34.04" stroke="#5e5e5e" fill="none"/><path d="M958.9 899.5l-.02 1h-.53l.03-.48-.02-.52zM1058.53 999.5l-.03.48.02.52h-.53v-1z" fill="#5e5e5e"/><path d="M958.88 1000l1.34-.05 1.75-.13 1.7-.2 1.63-.3 1.6-.37 1.58-.44 1.55-.5 1.54-.62 1.55-.7 1.55-.8 1.58-.9 1.6-1.05 1.66-1.2 1.72-1.36 1.8-1.58 1.9-1.87 2.03-2.2 2.23-2.68 2.5-3.32 2.93-4.3 3.72-6.13 6.38-11.88 13.86-26.72 3.7-6.12 2.94-4.3 2.5-3.33 2.23-2.67 2.04-2.2 1.9-1.87 1.8-1.57 1.7-1.37 1.66-1.2 1.6-1.03 1.58-.92 1.56-.78 1.55-.7 1.55-.6 1.55-.53 1.58-.45 1.6-.37 1.64-.3 1.7-.2 1.74-.13 1.34-.04" stroke="#5e5e5e" fill="none"/><path d="M958.9 1000.5h-.55l.03-.48-.02-.52h.52zM1058.5 899.98l.02.52h-.53v-1h.53z" fill="#5e5e5e"/><path d="M1413 1000h24" stroke="#c92d39" stroke-width="3" fill="none"/><path d="M1413.04 1001.5h-1.63l.1-1.48-.05-1.52h1.6zM1438.5 999.98l.05 1.52h-1.6v-3h1.64z" fill="#c92d39"/><path d="M780 1100c0 22.1-17.9 40-40 40s-40-17.9-40-40 17.9-40 40-40 40 17.9 40 40z" stroke="#5e5e5e" stroke-width="3" fill="#fff"/><use xlink:href="#e" transform="matrix(1,0,0,1,705,1065) translate(25.74074074074074 39.65277777777778)"/><path d="M780 1200c0 22.1-17.9 40-40 40s-40-17.9-40-40 17.9-40 40-40 40 17.9 40 40z" stroke="#5e5e5e" stroke-width="3" fill="#fff"/><use xlink:href="#f" transform="matrix(1,0,0,1,705,1165) translate(23.271604938271608 39.65277777777778)"/><path d="M960 1100c0 22.1-17.9 40-40 40s-40-17.9-40-40 17.9-40 40-40 40 17.9 40 40z" stroke="#ef8d22" stroke-width="3" fill="#ffdba9"/><use xlink:href="#a" transform="matrix(1,0,0,1,885,1065) translate(27.006172839506174 39.65277777777778)"/><path d="M960 1200c0 22.1-17.9 40-40 40s-40-17.9-40-40 17.9-40 40-40 40 17.9 40 40z" stroke="#ef8d22" stroke-width="3" fill="#ffdba9"/><use xlink:href="#a" transform="matrix(1,0,0,1,885,1165) translate(27.006172839506174 39.65277777777778)"/><path d="M1140 800c0 22.1-17.9 40-40 40s-40-17.9-40-40 17.9-40 40-40 40 17.9 40 40z" stroke="#ef8d22" stroke-width="3" fill="#ffdba9"/><use xlink:href="#a" transform="matrix(1,0,0,1,1065,765) translate(27.006172839506174 39.65277777777778)"/><path d="M1140 1100c0 22.1-17.9 40-40 40s-40-17.9-40-40 17.9-40 40-40 40 17.9 40 40z" stroke="#ef8d22" stroke-width="3" fill="#ffdba9"/><use xlink:href="#a" transform="matrix(1,0,0,1,1065,1065) translate(27.006172839506174 39.65277777777778)"/><path d="M1140 1200c0 22.1-17.9 40-40 40s-40-17.9-40-40 17.9-40 40-40 40 17.9 40 40z" stroke="#ef8d22" stroke-width="3" fill="#ffdba9"/><use xlink:href="#a" transform="matrix(1,0,0,1,1065,1165) translate(27.006172839506174 39.65277777777778)"/><path d="M1280 900c0 22.1-17.9 40-40 40s-40-17.9-40-40 17.9-40 40-40 40 17.9 40 40z" stroke="#ef8d22" stroke-width="3" fill="#ffdba9"/><use xlink:href="#a" transform="matrix(1,0,0,1,1205,865) translate(27.006172839506174 39.65277777777778)"/><path d="M1280 1000c0 22.1-17.9 40-40 40s-40-17.9-40-40 17.9-40 40-40 40 17.9 40 40z" stroke="#ef8d22" stroke-width="3" fill="#ffdba9"/><use xlink:href="#a" transform="matrix(1,0,0,1,1205,965) translate(27.006172839506174 39.65277777777778)"/><path d="M1280 1100c0 22.1-17.9 40-40 40s-40-17.9-40-40 17.9-40 40-40 40 17.9 40 40z" stroke="#ef8d22" stroke-width="3" fill="#ffdba9"/><use xlink:href="#a" transform="matrix(1,0,0,1,1205,1065) translate(27.006172839506174 39.65277777777778)"/><path d="M959.88 899.96h.33l1.77-.14 1.7-.2 1.63-.3 1.6-.36 1.57-.45 1.55-.5 1.54-.62 1.54-.7 1.56-.8 1.57-.9 1.6-1.04 1.66-1.2 1.7-1.36 1.8-1.6 1.9-1.84 2.03-2.2 2.22-2.67 2.5-3.32 2.92-4.3 3.7-6.1 6.3-11.74 14.04-27.07 3.7-6.1 2.93-4.3 2.5-3.32 2.23-2.66 2.04-2.2 1.9-1.86 1.8-1.58 1.7-1.37 1.65-1.2 1.6-1.03 1.58-.9 1.55-.8 1.54-.7 1.55-.6 1.55-.54 1.57-.44 1.6-.37 1.63-.28 1.7-.22 1.74-.13h.34" stroke="#c92d39" stroke-width="3" fill="none"/><path d="M959.96 901.46l-1.67.04.08-1.48-.05-1.52 1.55-.04zM1058.5 799.98l.05 1.4h-1.58v-3h1.63z" fill="#c92d39"/><path d="M782 900l.23.02.72.04.72.08.7.1.7.13.7.17.7.2.7.22.7.27.73.3.74.34.74.4.77.44.8.5.8.57.85.65.88.73.92.83.98.95 1.03 1.1 1.1 1.28 1.2 1.5 1.27 1.76 1.4 2.1 1.52 2.53 1.7 3.1 1.94 3.92 2.24 5.04 2.66 6.75 3.33 9.62 4.67 15.57 24.4 93.18 3.32 9.6 2.66 6.76 2.24 5.04 1.94 3.9 1.7 3.13 1.54 2.54 1.4 2.1 1.27 1.76 1.2 1.5 1.1 1.27 1.02 1.1.98.95.92.83.88.73.85.65.8.56.8.5.77.44.74.4.74.33.72.3.7.27.7.23.7.2.7.16.7.13.7.1.73.08.72.04h.23" stroke="#5e5e5e" fill="none"/><path d="M782.03 899.5l-.03 1h-.53l.03-.48-.02-.52zM878.53 1099.5l-.03.48.02.52H878v-1z" fill="#5e5e5e"/><path d="M782 900l.48.04.48.05.48.06.48.1.48.1.5.14.48.16.5.2.5.2.53.25.55.3.55.3.57.37.6.42.62.46.64.54.7.62.72.7.77.84.84.97.9 1.13.98 1.35 1.07 1.63 1.2 1.97 1.32 2.42 1.5 3.03 1.72 3.88 2.02 5.1 2.4 6.94 2.98 9.9 3.9 15.3 5.82 27.78 27.26 153.28 3.9 15.3 2.98 9.9 2.4 6.94 2.02 5.1 1.72 3.88 1.5 3.03 1.33 2.42 1.18 1.97 1.07 1.62.98 1.34.9 1.13.84.97.77.83.73.7.7.63.64.54.63.47.6.43.57.36.55.3.54.3.5.24.52.2.5.2.5.16.48.13.48.12.48.1.48.06.48.06.48.03" stroke="#5e5e5e" fill="none"/><path d="M782.03 899.5l-.03 1h-.53l.03-.48-.02-.52zM878.53 1199.5l-.03.48.02.52H878v-1z" fill="#5e5e5e"/><path d="M782 1200h96" stroke="#5e5e5e" fill="none"/><path d="M782.02 1200.5h-.55l.03-.48-.02-.52h.54zM878.5 1199.98l.02.52H878v-1h.53z" fill="#5e5e5e"/><path d="M782 1200l1.86-.06 2.2-.17 2.06-.27 1.95-.35 1.86-.44 1.78-.5 1.73-.6 1.67-.68 1.63-.77 1.6-.85 1.6-.96 1.6-1.08 1.6-1.2 1.64-1.36 1.66-1.55 1.73-1.77 1.8-2.05 1.93-2.43 2.08-2.95 2.35-3.7 2.8-5 4-8.04 14.18-30.7 2.88-5.08 2.4-3.8 2.15-3 1.97-2.5 1.86-2.12 1.78-1.83 1.73-1.6 1.7-1.4 1.66-1.26 1.66-1.1 1.65-1 1.68-.9 1.7-.8 1.76-.7 1.8-.64 1.86-.54 1.95-.46 2.06-.38 2.18-.28 2.32-.18h.04" stroke="#5e5e5e" fill="none"/><path d="M782.03 1200.5h-.56l.03-.48-.02-.52h.52zM878.6 1103l.06.4-.55.02-.03-1 .5-.02z" fill="#5e5e5e"/><path d="M782 1200h.2l.66-.06.67-.07.66-.1.65-.12.66-.15.67-.2.66-.2.67-.25.68-.3.7-.3.7-.38.7-.42.76-.47.77-.54.8-.6.84-.7.87-.78.93-.9.98-1.05 1.05-1.2 1.12-1.4 1.2-1.68 1.33-2 1.46-2.4 1.62-2.95 1.84-3.7 2.1-4.77 2.52-6.36 3.1-8.97 4.25-14.14 25.53-99.8 3.1-8.97 2.52-6.36 2.1-4.77 1.85-3.7 1.62-2.96 1.46-2.4 1.32-2 1.2-1.66 1.13-1.4 1.04-1.2.98-1.05.92-.9.87-.8.84-.7.8-.6.76-.53.75-.47.7-.42.72-.37.7-.32.66-.3.67-.24.67-.2.65-.2.66-.15.66-.13.65-.1.67-.06.67-.05h.18" stroke="#5e5e5e" fill="none"/><path d="M782.03 1200.5h-.56l.03-.48-.02-.52h.52zM875.38 999.98l.02.52h-.53v-1h.54z" fill="#5e5e5e"/><path d="M782 1200l.42-.04.45-.05.45-.05.45-.1.45-.1.46-.12.46-.15.47-.18.5-.2.48-.23.5-.26.53-.3.54-.34.56-.4.6-.43.6-.5.65-.6.7-.67.73-.78.78-.92.86-1.07.92-1.3 1.02-1.52 1.12-1.86 1.26-2.3 1.43-2.87 1.63-3.68 1.9-4.84 2.3-6.58 2.8-9.37 3.67-14.38 5.36-25.53L845.2 956.2l3.67-14.38 2.82-9.37 2.27-6.58 1.9-4.84 1.64-3.68 1.44-2.87 1.26-2.3 1.12-1.86 1.02-1.53.92-1.3.86-1.06.78-.92.74-.78.7-.68.64-.58.6-.5.6-.45.56-.4.53-.34.52-.3.5-.27.5-.23.47-.2.47-.18.46-.15.46-.12.45-.1.46-.1.45-.06.46-.06.42-.03" stroke="#5e5e5e" fill="none"/><path d="M782.03 1200.5h-.56l.03-.48-.02-.52h.52zM875.38 899.98l.02.52h-.53v-1h.54z" fill="#5e5e5e"/><path d="M782 1000l1.23.04 1.65.13 1.6.2 1.54.27 1.52.35 1.5.4 1.46.5 1.46.58 1.47.66 1.47.76 1.5.87 1.53 1 1.57 1.13 1.63 1.3 1.7 1.52 1.8 1.77 1.95 2.1 2.12 2.52 2.36 3.14 2.73 4.04 3.38 5.6 5.13 9.56 16.52 32.63 3.4 5.6 2.72 4.04 2.36 3.14 2.12 2.53 1.94 2.1 1.8 1.78 1.7 1.52 1.64 1.3 1.57 1.14 1.53 1 1.5.86 1.47.76 1.47.66 1.46.58 1.47.5 1.5.4 1.5.36 1.56.27 1.6.2 1.64.13 1.23.03" stroke="#5e5e5e" fill="none"/><path d="M782.03 999.5l-.03 1h-.53l.03-.48-.02-.52zM878.53 1099.5l-.03.48.02.52H878v-1z" fill="#5e5e5e"/><path d="M782 1000l.23.02.72.04.72.08.7.1.7.13.7.17.7.2.7.22.7.27.73.3.74.34.74.4.77.44.8.5.8.57.85.65.88.73.92.83.98.95 1.03 1.1 1.1 1.28 1.2 1.5 1.27 1.76 1.4 2.1 1.52 2.53 1.7 3.1 1.94 3.92 2.24 5.04 2.66 6.75 3.33 9.62 4.67 15.57 24.4 93.18 3.32 9.6 2.66 6.76 2.24 5.04 1.94 3.9 1.7 3.13 1.54 2.54 1.4 2.1 1.27 1.76 1.2 1.5 1.1 1.27 1.02 1.1.98.95.92.83.88.73.85.65.8.56.8.5.77.44.74.4.74.33.72.3.7.27.7.23.7.2.7.16.7.13.7.1.73.08.72.04h.23" stroke="#5e5e5e" fill="none"/><path d="M782.03 999.5l-.03 1h-.53l.03-.48-.02-.52zM878.53 1199.5l-.03.48.02.52H878v-1z" fill="#5e5e5e"/><path d="M958.88 900l.28.02.77.04.75.08.75.1.75.16.74.17.74.2.75.25.76.28.77.32.77.37.8.4.8.47.84.53.86.6.9.67.92.78.97.87 1.02 1 1.1 1.17 1.15 1.33 1.24 1.57 1.35 1.85 1.47 2.2 1.6 2.68 1.8 3.3 2.06 4.1 2.36 5.33 2.83 7.16 3.57 10.3 5.18 17.32 23.02 86.03 3.57 10.3 2.84 7.17 2.36 5.32 2.05 4.12 1.8 3.3 1.6 2.66 1.48 2.2 1.34 1.86 1.24 1.57 1.17 1.34 1.1 1.17 1.02 1 .96.88.93.78.88.67.86.6.84.53.8.47.8.4.77.38.77.32.75.28.75.24.74.2.74.18.75.15.75.1.75.1.77.03h.28" stroke="#5e5e5e" fill="none"/><path d="M958.9 899.5l-.02 1h-.53l.03-.48-.02-.52zM1058.53 1099.5l-.03.48.02.52h-.53v-1z" fill="#5e5e5e"/><path d="M958.88 900h.02l.52.04.5.06.52.07.52.1.5.12.53.14.5.17.54.2.54.23.55.26.57.3.6.33.6.38.62.45.66.5.7.57.7.65.78.76.83.87.87 1.03.95 1.2 1.03 1.42 1.13 1.7 1.25 2.08 1.4 2.55 1.58 3.2 1.83 4.07 2.12 5.37 2.53 7.3 3.15 10.48 4.14 16.26 6.37 30.4 26.17 143.88 4.15 16.26 3.15 10.47 2.53 7.3 2.12 5.38 1.82 4.08 1.58 3.2 1.4 2.54 1.25 2.07 1.13 1.7 1.03 1.43.95 1.2.9 1.03.82.87.77.76.7.65.7.57.66.5.63.44.6.37.58.34.57.3.55.27.54.23.53.2.52.16.5.15.53.13.5.1.52.07.5.06.53.03h.02" stroke="#5e5e5e" fill="none"/><path d="M958.9 899.5l-.02 1h-.53l.03-.48-.02-.52zM1058.53 1199.5l-.03.48.02.52h-.53v-1z" fill="#5e5e5e"/><path d="M958.88 1000l1.33.05 1.77.13 1.7.2 1.63.3 1.6.36 1.57.45 1.55.5 1.54.62 1.54.7 1.56.8 1.57.9 1.6 1.04 1.66 1.2 1.7 1.36 1.8 1.6 1.9 1.84 2.03 2.2 2.22 2.67 2.5 3.32 2.92 4.3 3.7 6.1 6.3 11.74 14.04 27.07 3.7 6.1 2.93 4.3 2.5 3.32 2.23 2.66 2.04 2.2 1.9 1.86 1.8 1.58 1.7 1.37 1.65 1.2 1.6 1.03 1.58.9 1.55.8 1.54.7 1.55.6 1.55.54 1.57.44 1.6.36 1.63.3 1.7.2 1.74.14 1.33.03" stroke="#5e5e5e" fill="none"/><path d="M958.9 999.5l-.02 1h-.53l.03-.48-.02-.52zM1058.52 1099.62l-.02.36.02.64h-.53v-1z" fill="#5e5e5e"/><path d="M958.88 1000l.28.02.77.04.75.08.75.1.75.16.74.17.74.2.75.25.76.28.77.32.77.37.8.4.8.47.84.53.86.6.9.67.92.78.97.87 1.02 1 1.1 1.17 1.15 1.33 1.24 1.57 1.35 1.85 1.47 2.2 1.6 2.68 1.8 3.3 2.06 4.1 2.36 5.33 2.83 7.16 3.57 10.3 5.18 17.32 23.02 86.03 3.57 10.3 2.84 7.17 2.36 5.32 2.05 4.12 1.8 3.3 1.6 2.66 1.48 2.2 1.34 1.86 1.24 1.57 1.17 1.34 1.1 1.17 1.02 1 .96.88.93.78.88.67.86.6.84.53.8.47.8.4.77.38.77.32.75.28.75.24.74.2.74.18.75.15.75.1.75.1.77.03h.28" stroke="#5e5e5e" fill="none"/><path d="M958.9 999.5l-.02 1h-.53l.03-.48-.02-.52zM1058.53 1199.5l-.03.48.02.52h-.53v-1z" fill="#5e5e5e"/><path d="M961.83 1102.87l1.88.16 2.25.3 2.1.4 2 .5 1.93.58 1.84.67 1.8.74 1.75.85 1.72.93 1.7 1.05 1.7 1.16 1.7 1.3 1.73 1.46 1.76 1.66 1.82 1.9 1.9 2.2 2.04 2.62 2.2 3.16 2.5 4 3.02 5.45 4.6 9.48 12.35 26.76 2.94 5.3 2.4 3.87 2.14 3.05 1.96 2.5 1.82 2.1 1.74 1.83 1.68 1.57 1.64 1.4 1.6 1.22 1.6 1.1 1.6.98 1.62.87 1.64.78 1.67.7 1.72.6 1.77.54 1.86.45 1.95.38 2.06.28 2.2.2 2.26.07" stroke="#5e5e5e" fill="none"/><path d="M961.88 1102.37l-.08 1-.5-.04.06-1zM1058.53 1199.5l-.03.48.02.52h-.54v-1z" fill="#5e5e5e"/><path d="M961.83 1102.85l38.63 1.43 57.64-1.44" stroke="#5e5e5e" fill="none"/><path d="M961.86 1102.35l-.04 1-.52-.02.06-1zM1058.6 1103l.05.33h-.55l-.03-1h.5z" fill="#5e5e5e"/><path d="M961.83 1102.85l1.64.05 2-.02 1.86-.12 1.75-.2 1.67-.26 1.6-.33 1.53-.4 1.48-.47 1.44-.53 1.4-.6 1.4-.67 1.36-.75 1.37-.83 1.36-.93 1.36-1.04 1.4-1.16 1.42-1.3 1.46-1.48 1.52-1.7 1.6-1.96 1.68-2.3 1.84-2.78 2.04-3.43 2.37-4.48 3.04-6.52 16.47-39.63 2.45-4.6 2.1-3.56 1.9-2.87 1.77-2.4 1.67-2.06 1.58-1.77 1.53-1.56 1.5-1.36 1.48-1.22 1.45-1.1 1.44-.98 1.45-.88 1.46-.8 1.47-.7 1.5-.65 1.55-.56 1.58-.5 1.65-.43 1.7-.35 1.8-.3 1.9-.2 2.03-.12 1.14-.02" stroke="#5e5e5e" fill="none"/><path d="M961.86 1102.35l-.04 1-.52-.02.06-1zM1058.5 999.98l.02.52h-.52l-.02-1h.55z" fill="#5e5e5e"/><path d="M961.83 1102.85l2.72.1h2.92l2.65-.12 2.45-.2 2.25-.3 2.1-.36 1.95-.43 1.83-.47 1.73-.53 1.63-.57 1.56-.62 1.48-.67 1.42-.7 1.36-.76 1.32-.8 1.27-.86 1.24-.9 1.2-.96 1.18-1.02 1.15-1.08 1.12-1.16 1.1-1.23 1.1-1.32 1.08-1.43 1.06-1.54 1.05-1.66 1.04-1.83 1.03-1.98 1.03-2.2 1-2.44 1.02-2.73.98-3.07.96-3.5.93-4 .88-4.7.8-5.54.68-6.73.5-8.4.2-10.97-.4-15.6-2-28.75-6.96-81.82-.4-16.1.2-11.42.5-8.78.72-7.07.85-5.87.93-4.95 1-4.26 1-3.72 1.06-3.27 1.07-2.92 1.08-2.6 1.1-2.36 1.12-2.15 1.13-1.97 1.13-1.8 1.15-1.67 1.17-1.55 1.18-1.43 1.2-1.34 1.23-1.26 1.25-1.18 1.28-1.12 1.32-1.04 1.35-1 1.4-.92 1.43-.88 1.5-.83 1.55-.77 1.64-.73 1.7-.68 1.8-.63 1.92-.6 2-.52 2.18-.47 2.32-.4 2.5-.3 2.72-.25 2.96-.13h1.32" stroke="#5e5e5e" fill="none"/><path d="M961.86 1102.35l-.04 1-.52-.02.06-1zM1058.5 799.98l.02.52h-.53l-.02-1h.55z" fill="#5e5e5e"/><path d="M961.83 1102.85l2.72.1h2.92l2.65-.12 2.45-.2 2.25-.3 2.1-.36 1.95-.43 1.83-.47 1.73-.53 1.63-.57 1.56-.62 1.48-.67 1.42-.7 1.36-.76 1.32-.8 1.27-.86 1.24-.9 1.2-.96 1.18-1.02 1.15-1.08 1.12-1.16 1.1-1.23 1.1-1.32 1.08-1.43 1.06-1.54 1.05-1.66 1.04-1.83 1.03-1.98 1.03-2.2 1-2.44 1.02-2.73.98-3.07.96-3.5.93-4 .88-4.7.8-5.54.68-6.73.5-8.4.2-10.97-.4-15.6-2-28.75-6.96-81.82-.4-16.1.2-11.42.5-8.78.72-7.07.85-5.87.93-4.95 1-4.26 1-3.72 1.06-3.27 1.07-2.92 1.08-2.6 1.1-2.36 1.12-2.15 1.13-1.97 1.13-1.8 1.15-1.67 1.17-1.55 1.18-1.43 1.2-1.34 1.23-1.26 1.25-1.18 1.28-1.12 1.32-1.04 1.35-1 1.4-.92 1.43-.88 1.5-.83 1.55-.77 1.64-.73 1.7-.68 1.8-.63 1.92-.6 2-.52 2.18-.47 2.32-.4 2.5-.3 2.72-.25 2.96-.13h1.32" stroke="#5e5e5e" fill="none"/><path d="M961.86 1102.35l-.04 1-.52-.02.06-1zM1058.5 799.98l.02.52h-.53l-.02-1h.55z" fill="#5e5e5e"/><path d="M958.88 1000l.28-.02.77-.04.75-.08.75-.1.75-.16.74-.17.74-.2.75-.25.76-.28.77-.32.77-.37.8-.4.8-.47.84-.53.86-.6.9-.67.92-.78.97-.87 1.02-1 1.1-1.17 1.15-1.33 1.24-1.57 1.35-1.85 1.47-2.2 1.6-2.68 1.8-3.3 2.06-4.1 2.36-5.33 2.83-7.16 3.57-10.3 5.18-17.32 23.02-86.03 3.57-10.3 2.84-7.17 2.36-5.32 2.05-4.12 1.8-3.3 1.6-2.66 1.48-2.2 1.34-1.86 1.24-1.57 1.17-1.34 1.1-1.17 1.02-1 .96-.88.93-.78.88-.67.86-.6.84-.53.8-.47.8-.4.77-.38.77-.32.75-.28.75-.24.74-.2.74-.18.75-.15.75-.1.75-.1.77-.03h.28" stroke="#5e5e5e" fill="none"/><path d="M958.9 1000.5h-.55l.03-.48-.02-.52h.52zM1058.5 799.98l.02.52h-.53v-1h.53z" fill="#5e5e5e"/><path d="M961.83 1102.85l1.9.07h2.2l2.03-.1 1.88-.16 1.76-.22 1.64-.3 1.56-.32 1.47-.38 1.4-.43 1.33-.46 1.3-.5 1.22-.57 1.2-.6 1.15-.63 1.12-.7 1.1-.72 1.07-.8 1.05-.83 1.05-.92 1.02-.97 1-1.04 1.03-1.13 1-1.23 1.02-1.34 1-1.47 1.03-1.62 1.02-1.78 1.03-2 1.05-2.23 1.05-2.53 1.07-2.9 1.08-3.37 1.1-3.98 1.1-4.8 1.12-5.97 1.12-7.8 1.12-11.17 1.3-23.4 2.07-44.18 1.17-11.48 1.15-8.05 1.16-6.2 1.16-5 1.15-4.18 1.12-3.54 1.13-3.06 1.1-2.67 1.12-2.37 1.1-2.1 1.08-1.9 1.08-1.73 1.08-1.57 1.1-1.43 1.08-1.32 1.1-1.2 1.08-1.14 1.1-1.05 1.13-.98 1.13-.9 1.17-.86 1.18-.8 1.22-.74 1.26-.7 1.3-.64 1.34-.6 1.4-.56 1.45-.5 1.53-.48 1.6-.42 1.7-.36 1.82-.32 1.93-.24 2.07-.18 2.24-.1h.86" stroke="#5e5e5e" fill="none"/><path d="M961.86 1102.35l-.04 1-.52-.02.06-1zM1058.5 899.98l.02.52h-.53l-.02-1h.55z" fill="#5e5e5e"/><path d="M962 1199.98h.24l.36-.05.36-.05.37-.07.37-.08.37-.1.38-.13.4-.15.38-.17.4-.2.42-.2.43-.25.45-.3.47-.3.5-.4.5-.42.55-.48.6-.57.6-.67.68-.78.73-.92.8-1.1.88-1.32.98-1.62 1.1-2 1.24-2.52 1.44-3.23 1.68-4.28 2-5.8 2.48-8.22 3.15-12.34 4.28-20.28 6.68-40.27 30.16-221.68 4.27-20.28 3.14-12.34 2.47-8.22 2.02-5.8 1.68-4.27 1.44-3.22 1.25-2.52 1.08-2 .98-1.62.88-1.32.8-1.1.73-.92.67-.78.62-.67.6-.57.53-.5.5-.42.5-.38.47-.32.45-.3.43-.23.42-.22.4-.18.4-.17.38-.14.38-.12.37-.1.37-.1.37-.06.36-.05.36-.04h.24" stroke="#5e5e5e" fill="none"/><path d="M962.03 1200.5h-.56l.03-.48-.02-.52h.52zM1058.5 799.98l.02.52h-.53v-1h.53z" fill="#5e5e5e"/><path d="M962 1200l.48-.04.48-.05.48-.06.48-.1.48-.1.5-.14.48-.16.5-.2.5-.2.53-.25.55-.3.55-.3.57-.37.6-.42.62-.46.64-.54.7-.62.72-.7.77-.84.84-.97.9-1.13.98-1.35 1.07-1.63 1.2-1.97 1.32-2.42 1.5-3.03 1.72-3.88 2.02-5.1 2.4-6.94 2.98-9.9 3.9-15.3 5.82-27.78 27.26-153.28 3.9-15.3 2.98-9.9 2.4-6.94 2.02-5.1 1.72-3.88 1.5-3.03 1.33-2.42 1.18-1.97 1.07-1.62.98-1.34.9-1.13.84-.97.77-.83.73-.7.7-.63.64-.54.63-.47.6-.43.57-.36.55-.3.54-.3.5-.24.52-.2.5-.2.5-.16.48-.13.48-.12.48-.1.48-.06.48-.06.48-.03" stroke="#5e5e5e" fill="none"/><path d="M962.03 1200.5h-.56l.03-.48-.02-.52h.52zM1058.5 899.98l.02.52h-.53v-1h.53z" fill="#5e5e5e"/><path d="M962 1200l.23-.02.72-.04.72-.08.7-.1.7-.13.7-.17.7-.2.7-.22.7-.27.73-.3.74-.34.74-.4.77-.44.8-.5.8-.57.85-.65.88-.73.92-.83.98-.95 1.03-1.1 1.1-1.28 1.2-1.5 1.27-1.76 1.4-2.1 1.52-2.53 1.7-3.1 1.94-3.92 2.24-5.04 2.66-6.75 3.33-9.62 4.67-15.57 24.4-93.18 3.32-9.6 2.66-6.76 2.24-5.04 1.94-3.9 1.7-3.13 1.54-2.54 1.4-2.1 1.27-1.76 1.2-1.5 1.1-1.27 1.02-1.1.98-.95.92-.83.88-.73.85-.65.8-.56.8-.5.77-.44.74-.4.74-.33.72-.3.7-.27.7-.23.7-.2.7-.16.7-.13.7-.1.73-.08.72-.04h.23" stroke="#5e5e5e" fill="none"/><path d="M962.03 1200.5h-.56l.03-.48-.02-.52h.52zM1058.5 999.98l.02.52h-.53v-1h.53z" fill="#5e5e5e"/><path d="M962 1200l1.23-.04 1.65-.13 1.6-.2 1.54-.27 1.52-.35 1.5-.4 1.46-.5 1.46-.58 1.47-.66 1.47-.76 1.5-.87 1.53-1 1.57-1.13 1.63-1.3 1.7-1.52 1.8-1.77 1.95-2.1 2.12-2.52 2.36-3.14 2.73-4.04 3.38-5.6 5.13-9.56 16.52-32.63 3.4-5.6 2.72-4.04 2.36-3.14 2.12-2.53 1.94-2.1 1.8-1.78 1.7-1.52 1.64-1.3 1.57-1.14 1.53-1 1.5-.86 1.47-.76 1.47-.66 1.46-.58 1.47-.5 1.5-.4 1.5-.36 1.56-.27 1.6-.2 1.64-.13 1.23-.03" stroke="#5e5e5e" fill="none"/><path d="M962.03 1200.5h-.56l.03-.48-.02-.52h.52zM1058.5 1099.98l.02.52h-.53v-1h.53z" fill="#5e5e5e"/><path d="M962 1200h96" stroke="#5e5e5e" fill="none"/><path d="M962.02 1200.5h-.55l.03-.48-.02-.52h.54zM1058.5 1199.98l.02.52h-.53v-1h.53z" fill="#5e5e5e"/><path d="M1142 800l.1.02.6.04.57.07.57.1.56.13.57.16.57.2.57.22.6.26.58.3.6.36.64.4.65.48.68.54.72.64.76.74.8.88.9 1.06.94 1.27 1.06 1.56 1.2 1.96 1.35 2.5 1.6 3.4 2 4.78 2.76 7.7 14.88 48.14 2 4.8 1.6 3.37 1.36 2.5 1.2 1.97 1.05 1.56.95 1.27.88 1.06.8.88.77.74.72.64.68.54.65.47.63.4.62.36.6.3.57.26.56.23.57.18.57.16.56.13.57.1.58.07.6.04h.1" stroke="#5e5e5e" fill="none"/><path d="M1142.03 799.5l-.03 1h-.53l.03-.48-.02-.52zM1198.53 899.5l-.03.48.02.52h-.46v-1z" fill="#5e5e5e"/><path d="M1141.63 800.5l1.32 5.03 1.36 6.23 1.25 7.16 1.1 8.4.92 10.27.62 13.44.05 21.98-.88 57.36.47 10.33.65 7.4.75 5.77.82 4.7.86 3.96.9 3.4.9 2.96.92 2.6.94 2.35.95 2.1.96 1.93 1 1.75.98 1.62 1 1.5 1.03 1.4 1.05 1.3 1.06 1.2 1.1 1.15 1.12 1.08 1.14 1.03 1.2.98 1.22.92 1.27.88 1.33.83 1.4.8 1.45.75 1.54.72 1.63.67 1.73.63 1.85.6 2 .54 2.13.5 2.34.43 2.55.36 2.8.27 3.1.18 2.5.04M1141.63 800.5l-.13-.5" stroke="#5e5e5e" fill="none"/><path d="M1198.53 999.5l-.03.48.02.52h-.54l.02-1z" fill="#5e5e5e"/><path d="M1142.97 800.27l.08.03.2.08.18.1.2.1.2.1.2.15.23.15.24.18.25.2.26.24.3.28.3.32.32.38.35.44.4.54.42.65.47.8.54 1 .63 1.24.72 1.6.84 2.15 1 2.9 1.25 4.16 1.6 6.23 2.1 10.06 3.1 18.53 5.82 47.87 15.5 146.34 3.07 18.54 2.12 10.07 1.6 6.24 1.24 4.15 1 2.9.85 2.15.72 1.6.62 1.26.53 1 .48.8.44.64.4.54.34.44.33.38.3.32.3.28.25.24.25.2.24.18.22.15.2.14.22.13.2.1.18.1.2.07.07.03" stroke="#c92d39" stroke-width="3" fill="none"/><path d="M1143.07 798.53l-.06 3-1.6-.03.1-1.48-.05-1.52zM1198.6 1098.5l-.1 1.48.05 1.52h-1.37v-3z" fill="#c92d39"/><path d="M1142 900h56" stroke="#5e5e5e" fill="none"/><path d="M1142 900.5h-.53l.03-.48-.02-.52h.53zM1198.5 899.98l.02.52h-.53v-1h.53z" fill="#5e5e5e"/><path d="M1142 900l.1.02.6.04.57.07.57.1.56.13.57.16.57.2.57.22.6.26.58.3.6.36.64.4.65.48.68.54.72.64.76.74.8.88.9 1.06.94 1.27 1.06 1.56 1.2 1.96 1.35 2.5 1.6 3.4 2 4.78 2.76 7.7 14.88 48.14 2 4.8 1.6 3.37 1.36 2.5 1.2 1.97 1.05 1.56.95 1.27.88 1.06.8.88.77.74.72.64.68.54.65.47.63.4.62.36.6.3.57.26.56.23.57.18.57.16.56.13.57.1.58.07.6.04h.1" stroke="#5e5e5e" fill="none"/><path d="M1142.03 899.5l-.03 1h-.53l.03-.48-.02-.52zM1198.53 999.5l-.03.48.02.52h-.46v-1z" fill="#5e5e5e"/><path d="M1142 900.02l.26.03.25.03.26.05.25.06.27.06.25.1.27.08.25.12.28.13.28.13.3.17.3.2.32.2.33.26.35.3.36.32.4.38.4.45.45.52.5.6.52.74.58.87.64 1.06.72 1.3.82 1.65.93 2.1 1.1 2.78 1.3 3.77 1.62 5.34 2.07 8.1 2.9 13.8 5.67 34.62 11.34 73.9 2.9 13.8 2.08 8.1 1.6 5.34 1.3 3.77 1.1 2.77.94 2.1.82 1.65.72 1.3.64 1.07.58.87.52.73.5.6.43.52.42.44.4.38.35.33.35.3.33.24.32.2.3.2.3.17.27.14.28.14.26.12.28.1.25.08.26.07.24.07.25.05.24.03.25.03" stroke="#5e5e5e" fill="none"/><path d="M1142.03 899.5l-.03 1h-.53l.03-.48-.02-.52zM1198.53 1099.5l-.03.48.02.52h-.46v-1z" fill="#5e5e5e"/><path d="M1142 1000l.1-.02.6-.04.57-.07.57-.1.56-.13.57-.16.57-.2.57-.22.6-.26.58-.3.6-.36.64-.4.65-.48.68-.54.72-.64.76-.74.8-.88.9-1.06.94-1.27 1.06-1.56 1.2-1.96 1.35-2.5 1.6-3.4 2-4.78 2.76-7.7 14.88-48.14 2-4.8 1.6-3.37 1.36-2.5 1.2-1.97 1.05-1.56.95-1.27.88-1.06.8-.88.77-.74.72-.64.68-.54.65-.47.63-.4.62-.36.6-.3.57-.26.56-.23.57-.18.57-.16.56-.13.57-.1.58-.07.6-.04h.1" stroke="#5e5e5e" fill="none"/><path d="M1142.03 1000.5h-.56l.03-.48-.02-.52h.52zM1198.5 899.98l.02.52h-.46v-1h.47z" fill="#5e5e5e"/><path d="M1142 1000h56" stroke="#5e5e5e" fill="none"/><path d="M1142 1000.5h-.53l.03-.48-.02-.52h.53zM1198.5 999.98l.02.52h-.53v-1h.53z" fill="#5e5e5e"/><path d="M1142 1000l.1.02.6.04.57.07.57.1.56.13.57.16.57.2.57.22.6.26.58.3.6.36.64.4.65.48.68.54.72.64.76.74.8.88.9 1.06.94 1.27 1.06 1.56 1.2 1.96 1.35 2.5 1.6 3.4 2 4.78 2.76 7.7 14.88 48.14 2 4.8 1.6 3.37 1.36 2.5 1.2 1.97 1.05 1.56.95 1.27.88 1.06.8.88.77.74.72.64.68.54.65.47.63.4.62.36.6.3.57.26.56.23.57.18.57.16.56.13.57.1.58.07.6.04h.1" stroke="#5e5e5e" fill="none"/><path d="M1142.03 999.5l-.03 1h-.53l.03-.48-.02-.52zM1198.53 1099.5l-.03.48.02.52h-.46v-1z" fill="#5e5e5e"/><path d="M1142 1099.98l.26-.03.25-.03.26-.05.25-.06.27-.06.25-.1.27-.08.25-.12.28-.13.28-.13.3-.17.3-.2.32-.2.33-.26.35-.3.36-.32.4-.38.4-.45.45-.52.5-.6.52-.74.58-.87.64-1.06.72-1.3.82-1.65.93-2.1 1.1-2.78 1.3-3.77 1.62-5.34 2.07-8.1 2.9-13.8 5.67-34.62 11.34-73.9 2.9-13.8 2.08-8.1 1.6-5.34 1.3-3.77 1.1-2.77.94-2.1.82-1.65.72-1.3.64-1.07.58-.87.52-.73.5-.6.43-.52.42-.44.4-.38.35-.33.35-.3.33-.24.32-.2.3-.2.3-.17.27-.14.28-.14.26-.12.28-.1.25-.08.26-.07.24-.07.25-.05.24-.03.25-.03" stroke="#5e5e5e" fill="none"/><path d="M1142.03 1100.5h-.56l.03-.48-.02-.52h.52zM1198.5 899.98l.02.52h-.46v-1h.47z" fill="#5e5e5e"/><path d="M1142 1100l.1-.02.6-.04.57-.07.57-.1.56-.13.57-.16.57-.2.57-.22.6-.26.58-.3.6-.36.64-.4.65-.48.68-.54.72-.64.76-.74.8-.88.9-1.06.94-1.27 1.06-1.56 1.2-1.96 1.35-2.5 1.6-3.4 2-4.78 2.76-7.7 14.88-48.14 2-4.8 1.6-3.37 1.36-2.5 1.2-1.97 1.05-1.56.95-1.27.88-1.06.8-.88.77-.74.72-.64.68-.54.65-.47.63-.4.62-.36.6-.3.57-.26.56-.23.57-.18.57-.16.56-.13.57-.1.58-.07.6-.04h.1" stroke="#5e5e5e" fill="none"/><path d="M1142.03 1100.5h-.56l.03-.48-.02-.52h.52zM1198.5 999.98l.02.52h-.46v-1h.47z" fill="#5e5e5e"/><path d="M1142 1100h56" stroke="#5e5e5e" fill="none"/><path d="M1142 1100.5h-.53l.03-.48-.02-.52h.53zM1198.5 1099.98l.02.52h-.53v-1h.53z" fill="#5e5e5e"/><path d="M1142 1199.97l.18-.03.17-.03.17-.03.17-.05.17-.06.18-.06.2-.08.18-.1.2-.1.2-.1.2-.15.23-.15.24-.18.25-.2.26-.24.3-.28.3-.32.32-.38.35-.44.4-.54.42-.65.47-.8.54-1 .63-1.24.72-1.6.84-2.15 1-2.9 1.25-4.16 1.6-6.23 2.1-10.06 3.1-18.53 5.82-47.87 15.5-146.34 3.07-18.54 2.12-10.07 1.6-6.24 1.24-4.15 1-2.9.85-2.15.72-1.6.62-1.26.53-1 .48-.8.44-.64.4-.54.34-.44.33-.38.3-.32.3-.28.25-.24.25-.2.24-.18.22-.15.2-.14.22-.13.2-.1.18-.1.2-.07.17-.06.18-.06.18-.05.17-.04.17-.04.17-.03" stroke="#5e5e5e" fill="none"/><path d="M1142.03 1200.5h-.56l.03-.48-.02-.52h.52zM1198.5 899.98l.02.52h-.46v-1h.47z" fill="#5e5e5e"/><path d="M1142 1199.98l.26-.03.25-.03.26-.05.25-.06.27-.06.25-.1.27-.08.25-.12.28-.13.28-.13.3-.17.3-.2.32-.2.33-.26.35-.3.36-.32.4-.38.4-.45.45-.52.5-.6.52-.74.58-.87.64-1.06.72-1.3.82-1.65.93-2.1 1.1-2.78 1.3-3.77 1.62-5.34 2.07-8.1 2.9-13.8 5.67-34.62 11.34-73.9 2.9-13.8 2.08-8.1 1.6-5.34 1.3-3.77 1.1-2.77.94-2.1.82-1.65.72-1.3.64-1.07.58-.87.52-.73.5-.6.43-.52.42-.44.4-.38.35-.33.35-.3.33-.24.32-.2.3-.2.3-.17.27-.14.28-.14.26-.12.28-.1.25-.08.26-.07.24-.07.25-.05.24-.03.25-.03" stroke="#5e5e5e" fill="none"/><path d="M1142.03 1200.5h-.56l.03-.48-.02-.52h.52zM1198.5 999.98l.02.52h-.46v-1h.47z" fill="#5e5e5e"/><path d="M1142 1200l.1-.02.6-.04.57-.07.57-.1.56-.13.57-.16.57-.2.57-.22.6-.26.58-.3.6-.36.64-.4.65-.48.68-.54.72-.64.76-.74.8-.88.9-1.06.94-1.27 1.06-1.56 1.2-1.96 1.35-2.5 1.6-3.4 2-4.78 2.76-7.7 14.88-48.14 2-4.8 1.6-3.37 1.36-2.5 1.2-1.97 1.05-1.56.95-1.27.88-1.06.8-.88.77-.74.72-.64.68-.54.65-.47.63-.4.62-.36.6-.3.57-.26.56-.23.57-.18.57-.16.56-.13.57-.1.58-.07.6-.04h.1" stroke="#5e5e5e" fill="none"/><path d="M1142.03 1200.5h-.56l.03-.48-.02-.52h.52zM1198.5 1099.98l.02.52h-.46v-1h.47z" fill="#5e5e5e"/><path d="M1410 1000c0 22.1-17.9 40-40 40s-40-17.9-40-40 17.9-40 40-40 40 17.9 40 40z" stroke="#ef8d22" stroke-width="3" fill="#ffdba9"/><use xlink:href="#a" transform="matrix(1,0,0,1,1335,965) translate(27.006172839506174 39.65277777777778)"/><path d="M1281.9 897.1l.88-.02 1.25.04 1.14.1 1.04.13 1 .17.9.2.84.25.8.27.77.3.73.33.7.35.67.38.65.42.63.45.62.48.6.52.6.57.6.62.57.68.58.74.58.82.58.9.6 1.03.57 1.16.6 1.3.6 1.53.6 1.8.6 2.14.6 2.64.6 3.36.57 4.52.54 6.95 1.5 38.5.6 4.62.6 3.44.62 2.7.62 2.22.62 1.86.62 1.58.6 1.37.62 1.2.6 1.07.62.96.6.86.6.77.62.7.62.65.62.6.64.55.65.5.66.48.7.44.7.4.75.38.77.34.8.32.86.3.9.24.96.22 1.04.2 1.12.14 1.2.1 1.1.03" stroke="#5e5e5e" fill="none"/><path d="M1281.92 897.6h-.5l-.02-.6-.06-.4h.56zM1328.53 999.5l-.03.48.02.52h-.54v-1z" fill="#5e5e5e"/><path d="M1282 1000h46" stroke="#5e5e5e" fill="none"/><path d="M1282 1000.5h-.53l.03-.48-.02-.52h.53zM1328.5 999.98l.02.52h-.53v-1h.53z" fill="#5e5e5e"/><path d="M1283 1099.86l.1-.02.4-.1.4-.1.4-.14.4-.15.4-.2.42-.2.44-.26.44-.3.47-.34.5-.4.5-.45.56-.53.6-.64.63-.77.7-.93.78-1.14.86-1.44 1-1.84 1.15-2.42 1.38-3.33 1.76-4.9 2.48-8.26 12.93-50.27 1.77-4.9 1.38-3.33 1.16-2.42 1-1.84.86-1.43.78-1.13.7-.93.64-.77.6-.64.54-.54.52-.47.5-.4.46-.33.44-.3.44-.24.42-.22.4-.2.4-.14.4-.14.4-.1.4-.1.1-.02" stroke="#c92d39" stroke-width="3" fill="none"/><path d="M1283.08 1101.46l-1.67.04.1-1.48-.05-1.52 1.55-.04zM1328.5 999.98l.05 1.52h-1.14v-3h1.2z" fill="#c92d39"/><path d="M1630 1000c0 22.1-17.9 40-40 40s-40-17.9-40-40 17.9-40 40-40 40 17.9 40 40z" stroke="#5e5e5e" stroke-width="3" fill="#fff"/><use xlink:href="#g" transform="matrix(1,0,0,1,1555,965) translate(28.82716049382716 39.65277777777778)"/><path d="M1630 1120c0 22.1-17.9 40-40 40s-40-17.9-40-40 17.9-40 40-40 40 17.9 40 40z" stroke="#5e5e5e" stroke-width="3" fill="#fff"/><use xlink:href="#h" transform="matrix(1,0,0,1,1555,1085) translate(27.592592592592595 39.65277777777778)"/><path d="M1590 1042v36" stroke="#5e5e5e" fill="none"/><path d="M1589.98 1041.5l.52-.02v.53h-1v-.53zM1590.5 1078.53l-.48-.03-.52.02v-.53h1z" fill="#5e5e5e"/><path d="M1523 1000h24" stroke="#c92d39" stroke-width="3" fill="none"/><path d="M1523.04 1001.5h-1.63l.1-1.48-.05-1.52h1.6zM1548.5 999.98l.05 1.52h-1.6v-3h1.64z" fill="#c92d39"/><defs><path fill="#333" d="M197 0v-115H63V0H30v-248h33v105h134v-105h34V0h-34" id="i"/><use transform="matrix(0.06172839506172839,0,0,0.06172839506172839,0,0)" xlink:href="#i" id="a"/><path fill="#333" d="M182 0l-62-99L58 0H3l86-130-79-118h55l55 88 55-88h55l-75 118L237 0h-55" id="j"/><path fill="#333" d="M101-251c68 0 84 54 84 127C185-50 166 4 99 4S15-52 14-124c-1-75 17-127 87-127zm-1 216c37-5 36-46 36-89s4-89-36-89c-39 0-36 45-36 89 0 43-3 85 36 89" id="k"/><g id="b"><use transform="matrix(0.06172839506172839,0,0,0.06172839506172839,0,0)" xlink:href="#j"/><use transform="matrix(0.043209876543209874,0,0,0.043209876543209874,14.814814814814813,3.1111111111111107)" xlink:href="#k"/></g><path fill="#333" d="M23 0v-37h61v-169l-59 37v-38l62-41h46v211h57V0H23" id="l"/><g id="c"><use transform="matrix(0.06172839506172839,0,0,0.06172839506172839,0,0)" xlink:href="#j"/><use transform="matrix(0.043209876543209874,0,0,0.043209876543209874,14.814814814814813,3.1111111111111107)" xlink:href="#l"/></g><path fill="#333" d="M185-274v5h-28l-36-26c-19 11-30 31-65 26v-5l45-49h40zm-39 172V0H94v-102L6-248h54l60 105 60-105h54" id="m"/><use transform="matrix(0.06172839506172839,0,0,0.06172839506172839,0,0)" xlink:href="#m" id="d"/><path fill="#333" d="M24 0v-54h51V0H24" id="n"/><g id="e"><use transform="matrix(0.06172839506172839,0,0,0.06172839506172839,0,0)" xlink:href="#n"/><use transform="matrix(0.06172839506172839,0,0,0.06172839506172839,6.172839506172839,0)" xlink:href="#n"/><use transform="matrix(0.06172839506172839,0,0,0.06172839506172839,12.345679012345679,0)" xlink:href="#n"/></g><path fill="#333" d="M147 0L96-86 75-71V0H25v-261h50v150l67-79h53l-66 74L201 0h-54" id="o"/><g id="f"><use transform="matrix(0.06172839506172839,0,0,0.06172839506172839,0,0)" xlink:href="#j"/><use transform="matrix(0.043209876543209874,0,0,0.043209876543209874,14.814814814814813,3.1111111111111107)" xlink:href="#o"/></g><path fill="#333" d="M176-78C186 10 51 31 16-35c-5-9-9-19-11-32l52-8c4 21 12 37 35 38 23 0 32-16 32-40v-130H75v-41h101v170" id="p"/><use transform="matrix(0.06172839506172839,0,0,0.06172839506172839,0,0)" xlink:href="#p" id="g"/><path fill="#333" d="M146-102V0H94v-102L6-248h54l60 105 60-105h54" id="q"/><use transform="matrix(0.06172839506172839,0,0,0.06172839506172839,0,0)" xlink:href="#q" id="h"/></defs></g></svg>