<svg xmlns="http://www.w3.org/2000/svg" xmlns:xlink="http://www.w3.org/1999/xlink" xmlns:lucid="lucid" width="1211.42" height="401.67"><g transform="translate(-209 -198.33333333333334)" lucid:page-tab-id="0_0"><path d="M0 0h1870.4v1323.2H0z" fill="#fff"/><path d="M300 286c0-3.3 2.7-6 6-6h328c3.3 0 6 2.7 6 6v148c0 3.3-2.7 6-6 6H306c-3.3 0-6-2.7-6-6z" stroke="#ef8d22" stroke-width="3" fill="#ffdba9"/><path d="M400 360c0 16.57-13.43 30-30 30s-30-13.43-30-30 13.43-30 30-30 30 13.43 30 30zm-51.22-21.22l42.44 42.44m-42.44 0l42.44-42.44M500 336c0-3.3 2.7-6 6-6h64c16.57 0 30 13.43 30 30s-13.43 30-30 30h-64c-3.3 0-6-2.7-6-6z" stroke="#5e5e5e" stroke-width="3" fill="#fff"/><use xlink:href="#a" transform="matrix(1,0,0,1,505,335) translate(29.23222222222222 36.04666666666667)"/><path d="M221 360h99M221.03 360H220" stroke="#5e5e5e" stroke-width="2" fill="none"/><path d="M335.26 360L321 364.64v-9.28z" stroke="#5e5e5e" stroke-width="2" fill="#5e5e5e"/><use xlink:href="#b" transform="matrix(1,0,0,1,241.1703703703704,334.66666666666663) translate(0 14.222222222222223)"/><path d="M402.5 360H480" stroke="#5e5e5e" stroke-width="2" fill="none"/><path d="M402.53 361h-1.1l.07-.96-.03-1.04h1.06z" fill="#5e5e5e"/><path d="M495.26 360L481 364.64v-9.28z" stroke="#5e5e5e" stroke-width="2" fill="#5e5e5e"/><use xlink:href="#c" transform="matrix(1,0,0,1,427.8370370370371,334.66666666666663) translate(0 14.222222222222223)"/><path d="M371 310h-2v-79.33h2z" fill="#5e5e5e"/><path fill="#5e5e5e"/><path d="M370 325.26L365.36 311h9.28z" fill="#5e5e5e"/><path d="M370 328.5l-6-18.5h12zm-3.26-16.5l3.26 10.03 3.26-10.03z" fill="#5e5e5e"/><use xlink:href="#d" transform="matrix(1,0,0,1,354.05925925925925,209.33333333333334) translate(0 14.222222222222223)"/><path d="M720 286c0-3.3 2.7-6 6-6h328c3.3 0 6 2.7 6 6v148c0 3.3-2.7 6-6 6H726c-3.3 0-6-2.7-6-6z" stroke="#ef8d22" stroke-width="3" fill="#ffdba9"/><path d="M820 360c0 16.57-13.43 30-30 30s-30-13.43-30-30 13.43-30 30-30 30 13.43 30 30zm-51.22-21.22l42.44 42.44m-42.44 0l42.44-42.44M920 336c0-3.3 2.7-6 6-6h64c16.57 0 30 13.43 30 30s-13.43 30-30 30h-64c-3.3 0-6-2.7-6-6z" stroke="#5e5e5e" stroke-width="3" fill="#fff"/><use xlink:href="#a" transform="matrix(1,0,0,1,925,335) translate(29.23222222222222 36.04666666666667)"/><path d="M822.5 360H900" stroke="#5e5e5e" stroke-width="2" fill="none"/><path d="M822.53 361h-1.1l.07-.96-.03-1.04h1.06z" fill="#5e5e5e"/><path d="M915.26 360L901 364.64v-9.28z" stroke="#5e5e5e" stroke-width="2" fill="#5e5e5e"/><use xlink:href="#e" transform="matrix(1,0,0,1,847.8370370370369,334.66666666666663) translate(0 14.222222222222223)"/><path d="M791 310h-2v-79.33h2z" fill="#5e5e5e"/><path fill="#5e5e5e"/><path d="M790 325.26L785.36 311h9.28z" fill="#5e5e5e"/><path d="M790 328.5l-6-18.5h12zm-3.26-16.5l3.26 10.03 3.26-10.03z" fill="#5e5e5e"/><use xlink:href="#f" transform="matrix(1,0,0,1,774.0592592592593,209.33333333333334) translate(0 14.222222222222223)"/><path d="M602.5 360H740" stroke="#5e5e5e" stroke-width="2" fill="none"/><path d="M602.53 361h-1.1l.07-.96-.03-1.04h1.06z" fill="#5e5e5e"/><path d="M755.26 360L741 364.64v-9.28z" stroke="#5e5e5e" stroke-width="2" fill="#5e5e5e"/><use xlink:href="#g" transform="matrix(1,0,0,1,666.5037037037036,334.66666666666663) translate(0 14.222222222222223)"/><path d="M1140 286c0-3.3 2.7-6 6-6h168c3.3 0 6 2.7 6 6v148c0 3.3-2.7 6-6 6h-168c-3.3 0-6-2.7-6-6z" stroke="#0c7cba" stroke-width="3" fill="#b2d6ef"/><path d="M1180 336c0-3.3 2.7-6 6-6h64c16.57 0 30 13.43 30 30s-13.43 30-30 30h-64c-3.3 0-6-2.7-6-6z" stroke="#5e5e5e" stroke-width="3" fill="#fff"/><use xlink:href="#h" transform="matrix(1,0,0,1,1185,335) translate(32.733333333333334 36.04666666666667)"/><path d="M1282.5 360h88.42" stroke="#5e5e5e" stroke-width="2" fill="none"/><path d="M1282.53 361h-1.1l.07-.96-.03-1.04h1.06z" fill="#5e5e5e"/><path d="M1386.18 360l-14.26 4.64v-9.28z" stroke="#5e5e5e" stroke-width="2" fill="#5e5e5e"/><use xlink:href="#i" transform="matrix(1,0,0,1,1347.490488162919,334.66666666666663) translate(0 14.222222222222223)"/><path d="M1221 310h-2v-79.33h2z" fill="#5e5e5e"/><path fill="#5e5e5e"/><path d="M1220 325.26l-4.64-14.26h9.28z" fill="#5e5e5e"/><path d="M1220 328.5l-6-18.5h12zm-3.26-16.5l3.26 10.03 3.26-10.03z" fill="#5e5e5e"/><use xlink:href="#j" transform="matrix(1,0,0,1,1214.0740740740741,209.33333333333334) translate(0 14.222222222222223)"/><path d="M1022.5 360H1160" stroke="#5e5e5e" stroke-width="2" fill="none"/><path d="M1022.53 361h-1.1l.07-.96-.03-1.04h1.06z" fill="#5e5e5e"/><path d="M1175.26 360l-14.26 4.64v-9.28z" stroke="#5e5e5e" stroke-width="2" fill="#5e5e5e"/><use xlink:href="#k" transform="matrix(1,0,0,1,1071.195529521345,334.66666666666663) translate(0 14.222222222222223)"/><use xlink:href="#l" transform="matrix(1,0,0,1,1071.195529521345,334.66666666666663) translate(30.44938271604939 14.222222222222223)"/><use xlink:href="#m" transform="matrix(1,0,0,1,1071.195529521345,334.66666666666663) translate(45.75802469135803 14.222222222222223)"/><path d="M800 540c0 22.1-17.9 40-40 40s-40-17.9-40-40 17.9-40 40-40 40 17.9 40 40z" stroke="#ef8d22" stroke-width="3" fill="#ffdba9"/><use xlink:href="#n" transform="matrix(1,0,0,1,725,505) translate(27.006172839506174 39.65277777777778)"/><path d="M802.5 540H860" stroke="#5e5e5e" stroke-width="2" fill="none"/><path d="M802.53 541h-1.1l.07-.98-.03-1.02h1.06z" fill="#5e5e5e"/><path d="M875.26 540L861 544.64v-9.28z" stroke="#5e5e5e" stroke-width="2" fill="#5e5e5e"/><path d="M640 540c0 22.1-17.9 40-40 40s-40-17.9-40-40 17.9-40 40-40 40 17.9 40 40z" stroke="#5e5e5e" stroke-width="3" fill="#fff"/><use xlink:href="#o" transform="matrix(1,0,0,1,565,505) translate(27.592592592592595 39.65277777777778)"/><path d="M642.5 540H700" stroke="#5e5e5e" stroke-width="2" fill="none"/><path d="M642.53 541h-1.1l.07-.98-.03-1.02h1.06z" fill="#5e5e5e"/><path d="M715.26 540L701 544.64v-9.28z" stroke="#5e5e5e" stroke-width="2" fill="#5e5e5e"/><path d="M960 540c0 22.1-17.9 40-40 40s-40-17.9-40-40 17.9-40 40-40 40 17.9 40 40z" stroke="#ef8d22" stroke-width="3" fill="#ffdba9"/><use xlink:href="#n" transform="matrix(1,0,0,1,885,505) translate(27.006172839506174 39.65277777777778)"/><path d="M962.5 540h57.5" stroke="#5e5e5e" stroke-width="2" fill="none"/><path d="M962.53 541h-1.1l.07-.98-.03-1.02h1.06z" fill="#5e5e5e"/><path d="M1035.26 540l-14.26 4.64v-9.28z" stroke="#5e5e5e" stroke-width="2" fill="#5e5e5e"/><path d="M1120 540c0 22.1-17.9 40-40 40s-40-17.9-40-40 17.9-40 40-40 40 17.9 40 40z" stroke="#5e5e5e" stroke-width="3" fill="#fff"/><g><use xlink:href="#p" transform="matrix(1,0,0,1,1045,505) translate(27.592592592592595 39.65277777777778)"/></g><defs><path fill="#373637" d="M450-467c33 64 75 128 72 228 0 158-83 250-239 250C119 11 41-92 41-256c0-181 106-272 283-272h278v64zM281-56c203 8 164-306 89-408-156-8-233 61-233 208-3 119 39 194 144 200" id="q"/><use transform="matrix(0.051111111111111114,0,0,0.051111111111111114,0,0)" xlink:href="#q" id="a"/><path fill="#333" d="M182 0l-62-99L58 0H3l86-130-79-118h55l55 88 55-88h55l-75 118L237 0h-55" id="r"/><path fill="#333" d="M20 75v-336h95v34H67V41h48v34H20" id="s"/><path fill="#333" d="M101-251c68 0 84 54 84 127C185-50 166 4 99 4S15-52 14-124c-1-75 17-127 87-127zm-1 216c37-5 36-46 36-89s4-89-36-89c-39 0-36 45-36 89 0 43-3 85 36 89" id="t"/><path fill="#333" d="M4 75V41h49v-268H4v-34h96V75H4" id="u"/><g id="b"><use transform="matrix(0.04938271604938272,0,0,0.04938271604938272,0,0)" xlink:href="#r"/><use transform="matrix(0.034567901234567905,0,0,0.034567901234567905,11.851851851851853,-4.977777777777778)" xlink:href="#s"/><use transform="matrix(0.034567901234567905,0,0,0.034567901234567905,15.965432098765433,-4.977777777777778)" xlink:href="#t"/><use transform="matrix(0.034567901234567905,0,0,0.034567901234567905,22.879012345679016,-4.977777777777778)" xlink:href="#u"/></g><path fill="#333" d="M24-248c93 1 206-16 204 79-1 75-69 88-152 82V0H24v-248zm52 121c47 0 100 7 100-41 0-47-54-39-100-39v80" id="v"/><g id="c"><use transform="matrix(0.04938271604938272,0,0,0.04938271604938272,0,0)" xlink:href="#v"/><use transform="matrix(0.034567901234567905,0,0,0.034567901234567905,11.851851851851853,-4.977777777777778)" xlink:href="#s"/><use transform="matrix(0.034567901234567905,0,0,0.034567901234567905,15.965432098765433,-4.977777777777778)" xlink:href="#t"/><use transform="matrix(0.034567901234567905,0,0,0.034567901234567905,22.879012345679016,-4.977777777777778)" xlink:href="#u"/></g><path fill="#333" d="M275 0h-61l-44-196L126 0H64L0-248h53L97-49l45-199h58l43 199 44-199h52" id="w"/><g id="d"><use transform="matrix(0.04938271604938272,0,0,0.04938271604938272,0,0)" xlink:href="#w"/><use transform="matrix(0.034567901234567905,0,0,0.034567901234567905,16.74074074074074,-4.977777777777778)" xlink:href="#s"/><use transform="matrix(0.034567901234567905,0,0,0.034567901234567905,20.854320987654322,-4.977777777777778)" xlink:href="#t"/><use transform="matrix(0.034567901234567905,0,0,0.034567901234567905,27.7679012345679,-4.977777777777778)" xlink:href="#u"/></g><path fill="#333" d="M23 0v-37h61v-169l-59 37v-38l62-41h46v211h57V0H23" id="x"/><g id="e"><use transform="matrix(0.04938271604938272,0,0,0.04938271604938272,0,0)" xlink:href="#v"/><use transform="matrix(0.034567901234567905,0,0,0.034567901234567905,11.851851851851853,-4.977777777777778)" xlink:href="#s"/><use transform="matrix(0.034567901234567905,0,0,0.034567901234567905,15.965432098765433,-4.977777777777778)" xlink:href="#x"/><use transform="matrix(0.034567901234567905,0,0,0.034567901234567905,22.879012345679016,-4.977777777777778)" xlink:href="#u"/></g><g id="f"><use transform="matrix(0.04938271604938272,0,0,0.04938271604938272,0,0)" xlink:href="#w"/><use transform="matrix(0.034567901234567905,0,0,0.034567901234567905,16.74074074074074,-4.977777777777778)" xlink:href="#s"/><use transform="matrix(0.034567901234567905,0,0,0.034567901234567905,20.854320987654322,-4.977777777777778)" xlink:href="#x"/><use transform="matrix(0.034567901234567905,0,0,0.034567901234567905,27.7679012345679,-4.977777777777778)" xlink:href="#u"/></g><g id="g"><use transform="matrix(0.04938271604938272,0,0,0.04938271604938272,0,0)" xlink:href="#r"/><use transform="matrix(0.034567901234567905,0,0,0.034567901234567905,11.851851851851853,-4.977777777777778)" xlink:href="#s"/><use transform="matrix(0.034567901234567905,0,0,0.034567901234567905,15.965432098765433,-4.977777777777778)" xlink:href="#x"/><use transform="matrix(0.034567901234567905,0,0,0.034567901234567905,22.879012345679016,-4.977777777777778)" xlink:href="#u"/></g><path fill="#373637" d="M393-193C390-70 338 12 212 12 130 12 70-23 31-93l60-42c25 44 54 74 113 74 81 0 105-50 105-140v-455h84v463" id="y"/><use transform="matrix(0.051111111111111114,0,0,0.051111111111111114,0,0)" xlink:href="#y" id="h"/><path fill="#333" d="M24 0v-248h52v208h133V0H24" id="z"/><use transform="matrix(0.04938271604938272,0,0,0.04938271604938272,0,0)" xlink:href="#z" id="i"/><path fill="#333" d="M146-102V0H94v-102L6-248h54l60 105 60-105h54" id="A"/><use transform="matrix(0.04938271604938272,0,0,0.04938271604938272,0,0)" xlink:href="#A" id="j"/><path fill="#333" d="M182-182c0 78-84 86-111 141h115V0H12c-6-101 99-100 120-180 1-22-12-31-33-32-23 0-32 14-35 34l-49-3c5-45 32-70 84-70 51 0 83 22 83 69" id="B"/><g id="k"><use transform="matrix(0.04938271604938272,0,0,0.04938271604938272,0,0)" xlink:href="#r"/><use transform="matrix(0.034567901234567905,0,0,0.034567901234567905,11.851851851851853,-4.977777777777778)" xlink:href="#s"/><use transform="matrix(0.034567901234567905,0,0,0.034567901234567905,15.965432098765433,-4.977777777777778)" xlink:href="#B"/><use transform="matrix(0.034567901234567905,0,0,0.034567901234567905,22.879012345679016,-4.977777777777778)" xlink:href="#u"/></g><path fill="#333" d="M15-148v-39h180v39H15zm0 97v-39h180v39H15" id="C"/><use transform="matrix(0.04938271604938272,0,0,0.04938271604938272,0,0)" xlink:href="#C" id="l"/><path fill="#333" d="M185-274v5h-28l-36-26c-19 11-30 31-65 26v-5l45-49h40zm-39 172V0H94v-102L6-248h54l60 105 60-105h54" id="D"/><use transform="matrix(0.04938271604938272,0,0,0.04938271604938272,0,0)" xlink:href="#D" id="m"/><path fill="#333" d="M197 0v-115H63V0H30v-248h33v105h134v-105h34V0h-34" id="E"/><use transform="matrix(0.06172839506172839,0,0,0.06172839506172839,0,0)" xlink:href="#E" id="n"/><use transform="matrix(0.06172839506172839,0,0,0.06172839506172839,0,0)" xlink:href="#r" id="o"/><use transform="matrix(0.06172839506172839,0,0,0.06172839506172839,0,0)" xlink:href="#D" id="p"/></defs></g></svg>